<mxfile host="app.diagrams.net" modified="2023-05-06T11:58:10.835Z" agent="Mozilla/5.0 (Windows NT 10.0; Win64; x64) AppleWebKit/537.36 (KHTML, like Gecko) Chrome/107.0.0.0 Safari/537.36 Edg/107.0.1418.35" etag="icXC4XayIz-A6uXNlPp3" version="21.2.7" type="github">
  <diagram name="第 1 页" id="9pobnR72q5jy9rtLN9cD">
    <mxGraphModel dx="5331" dy="2551" grid="1" gridSize="10" guides="1" tooltips="1" connect="1" arrows="1" fold="1" page="1" pageScale="1" pageWidth="827" pageHeight="1169" background="#ffffff" math="0" shadow="0">
      <root>
        <mxCell id="0" />
        <mxCell id="1" parent="0" />
        <mxCell id="eINXOdEoiIzQeCJLC4Ov-2" value="FW5" style="text;html=1;strokeColor=none;fillColor=none;align=center;verticalAlign=middle;whiteSpace=wrap;rounded=0;" vertex="1" parent="1">
          <mxGeometry x="20" y="30" width="60" height="30" as="geometry" />
        </mxCell>
        <mxCell id="eINXOdEoiIzQeCJLC4Ov-3" value="FW0" style="text;html=1;strokeColor=none;fillColor=none;align=center;verticalAlign=middle;whiteSpace=wrap;rounded=0;" vertex="1" parent="1">
          <mxGeometry x="1340" y="30" width="60" height="30" as="geometry" />
        </mxCell>
        <mxCell id="eINXOdEoiIzQeCJLC4Ov-4" value="FW2" style="text;html=1;strokeColor=none;fillColor=none;align=center;verticalAlign=middle;whiteSpace=wrap;rounded=0;" vertex="1" parent="1">
          <mxGeometry x="3171" y="80" width="60" height="30" as="geometry" />
        </mxCell>
        <mxCell id="eINXOdEoiIzQeCJLC4Ov-5" value="FW3" style="text;html=1;strokeColor=none;fillColor=none;align=center;verticalAlign=middle;whiteSpace=wrap;rounded=0;" vertex="1" parent="1">
          <mxGeometry x="3531" y="80" width="60" height="30" as="geometry" />
        </mxCell>
        <mxCell id="eINXOdEoiIzQeCJLC4Ov-8" value="获取input[SLOT_IN_IMG_FW5][cam_0]的image信息" style="rounded=0;whiteSpace=wrap;html=1;" vertex="1" parent="1">
          <mxGeometry x="-70" y="110" width="300" height="60" as="geometry" />
        </mxCell>
        <mxCell id="eINXOdEoiIzQeCJLC4Ov-10" value="" style="shape=curlyBracket;whiteSpace=wrap;html=1;rounded=1;flipH=1;labelPosition=right;verticalLabelPosition=middle;align=left;verticalAlign=middle;" vertex="1" parent="1">
          <mxGeometry x="10" y="7.5" width="20" height="75" as="geometry" />
        </mxCell>
        <mxCell id="eINXOdEoiIzQeCJLC4Ov-11" value="hobot :: Module *parent&lt;br&gt;hobot:: MessageLists &amp;amp;input&lt;br&gt;hobot::Workflow *workflow&lt;br&gt;hobot:: spRunContext context" style="text;html=1;strokeColor=none;fillColor=none;align=left;verticalAlign=middle;whiteSpace=wrap;rounded=0;" vertex="1" parent="1">
          <mxGeometry x="-160" y="7.5" width="170" height="70" as="geometry" />
        </mxCell>
        <mxCell id="eINXOdEoiIzQeCJLC4Ov-12" value="" style="endArrow=classic;html=1;rounded=0;entryX=0.5;entryY=0;entryDx=0;entryDy=0;exitX=1;exitY=0.75;exitDx=0;exitDy=0;" edge="1" parent="1" source="eINXOdEoiIzQeCJLC4Ov-2" target="eINXOdEoiIzQeCJLC4Ov-8">
          <mxGeometry width="50" height="50" relative="1" as="geometry">
            <mxPoint x="90" y="50" as="sourcePoint" />
            <mxPoint x="140" as="targetPoint" />
          </mxGeometry>
        </mxCell>
        <mxCell id="eINXOdEoiIzQeCJLC4Ov-13" value="ped_enable&amp;amp;&amp;amp;ped_detecor_[cam_0]&lt;br&gt;&amp;amp;&amp;amp;ped_config_.use_2pe_detection_?" style="rhombus;whiteSpace=wrap;html=1;" vertex="1" parent="1">
          <mxGeometry x="-50" y="260" width="260" height="120" as="geometry" />
        </mxCell>
        <mxCell id="eINXOdEoiIzQeCJLC4Ov-15" value="GetTrackingConfParamMsg" style="swimlane;whiteSpace=wrap;html=1;" vertex="1" parent="1">
          <mxGeometry x="-45" y="470" width="250" height="250" as="geometry" />
        </mxCell>
        <mxCell id="eINXOdEoiIzQeCJLC4Ov-16" value="作用：主要是为了获取需跟踪的行人目标&lt;br&gt;的系统参数值" style="text;html=1;align=left;verticalAlign=middle;resizable=0;points=[];autosize=1;strokeColor=none;fillColor=none;" vertex="1" parent="eINXOdEoiIzQeCJLC4Ov-15">
          <mxGeometry x="7.5" y="30" width="240" height="40" as="geometry" />
        </mxCell>
        <mxCell id="eINXOdEoiIzQeCJLC4Ov-17" value="各参数如下：" style="text;html=1;strokeColor=none;fillColor=none;align=center;verticalAlign=middle;whiteSpace=wrap;rounded=0;" vertex="1" parent="eINXOdEoiIzQeCJLC4Ov-15">
          <mxGeometry y="70" width="90" height="30" as="geometry" />
        </mxCell>
        <mxCell id="eINXOdEoiIzQeCJLC4Ov-18" value="min_valid_frames_:最少连续帧&lt;br&gt;min_valid_conf_:最小置信度&lt;br&gt;min_valid_acc_conf:&lt;br&gt;min_accept_con_without_cnn_:&lt;br&gt;min_accept_avg_conf_:&lt;br&gt;max_miss_det_:最大丢失帧数&lt;br&gt;use_cam_validate_:是否使用相机消失点去过滤非路面目标&lt;br&gt;use_lk_:&lt;br&gt;use_kf_:" style="text;html=1;strokeColor=none;fillColor=none;align=left;verticalAlign=middle;whiteSpace=wrap;rounded=0;" vertex="1" parent="eINXOdEoiIzQeCJLC4Ov-15">
          <mxGeometry x="26.25" y="90" width="202.5" height="150" as="geometry" />
        </mxCell>
        <mxCell id="eINXOdEoiIzQeCJLC4Ov-19" value="SimplePedSensor" style="swimlane;whiteSpace=wrap;html=1;" vertex="1" parent="1">
          <mxGeometry x="-20" y="790" width="200" height="120" as="geometry">
            <mxRectangle x="-60" y="790" width="140" height="30" as="alternateBounds" />
          </mxGeometry>
        </mxCell>
        <mxCell id="eINXOdEoiIzQeCJLC4Ov-87" value="作用：对目标过滤、融合之后，选择权重最大的max_fw5_2PE_num送入2PE检测模型，属于骑车人传递骑车人感知框，属于行人传递行人感知框" style="text;html=1;strokeColor=none;fillColor=none;align=left;verticalAlign=middle;whiteSpace=wrap;rounded=0;" vertex="1" parent="eINXOdEoiIzQeCJLC4Ov-19">
          <mxGeometry x="7.5" y="30" width="190" height="70" as="geometry" />
        </mxCell>
        <mxCell id="eINXOdEoiIzQeCJLC4Ov-20" value="Forward5InitPerceptionResults" style="swimlane;whiteSpace=wrap;html=1;strokeColor=#6666FF;" vertex="1" parent="1">
          <mxGeometry x="260" y="780" width="210" height="200" as="geometry" />
        </mxCell>
        <mxCell id="eINXOdEoiIzQeCJLC4Ov-46" value="作用：对感知框进行畸变校正" style="text;html=1;strokeColor=none;fillColor=none;align=left;verticalAlign=middle;whiteSpace=wrap;rounded=0;" vertex="1" parent="eINXOdEoiIzQeCJLC4Ov-20">
          <mxGeometry x="7.5" y="30" width="190" height="30" as="geometry" />
        </mxCell>
        <mxCell id="eINXOdEoiIzQeCJLC4Ov-47" value="各参数如下：&lt;br&gt;&lt;span style=&quot;white-space: pre;&quot;&gt;	&lt;/span&gt;ped_perception_list：内容为&lt;br&gt;[ped_0,ped_1,…,ped_n,cyclist_0&lt;br&gt;,cyclist_1，…,cycylist_m]&lt;br&gt;&lt;span style=&quot;white-space: pre;&quot;&gt;	&lt;/span&gt;undistort: 来自父函数传递过来的cam_0的畸变参数&lt;br&gt;&lt;span style=&quot;white-space: pre;&quot;&gt;	&lt;/span&gt;perceptionType_Ped:2" style="text;html=1;strokeColor=none;fillColor=none;align=left;verticalAlign=middle;whiteSpace=wrap;rounded=0;" vertex="1" parent="eINXOdEoiIzQeCJLC4Ov-20">
          <mxGeometry x="7.5" y="70" width="185" height="110" as="geometry" />
        </mxCell>
        <mxCell id="eINXOdEoiIzQeCJLC4Ov-24" value="" style="line;strokeWidth=2;html=1;" vertex="1" parent="1">
          <mxGeometry x="-450" y="37.5" width="40" height="10" as="geometry" />
        </mxCell>
        <mxCell id="eINXOdEoiIzQeCJLC4Ov-25" value="" style="line;strokeWidth=2;html=1;strokeColor=#6666FF;" vertex="1" parent="1">
          <mxGeometry x="-450" y="67.5" width="40" height="10" as="geometry" />
        </mxCell>
        <mxCell id="eINXOdEoiIzQeCJLC4Ov-26" value="一级" style="text;html=1;strokeColor=none;fillColor=none;align=center;verticalAlign=middle;whiteSpace=wrap;rounded=0;" vertex="1" parent="1">
          <mxGeometry x="-400" y="27.5" width="60" height="30" as="geometry" />
        </mxCell>
        <mxCell id="eINXOdEoiIzQeCJLC4Ov-27" value="二级" style="text;html=1;strokeColor=none;fillColor=none;align=center;verticalAlign=middle;whiteSpace=wrap;rounded=0;" vertex="1" parent="1">
          <mxGeometry x="-400" y="60" width="60" height="30" as="geometry" />
        </mxCell>
        <mxCell id="eINXOdEoiIzQeCJLC4Ov-28" value="" style="line;strokeWidth=2;html=1;strokeColor=#FF66B3;" vertex="1" parent="1">
          <mxGeometry x="-450" y="100" width="40" height="10" as="geometry" />
        </mxCell>
        <mxCell id="eINXOdEoiIzQeCJLC4Ov-29" value="三级" style="text;html=1;strokeColor=none;fillColor=none;align=center;verticalAlign=middle;whiteSpace=wrap;rounded=0;" vertex="1" parent="1">
          <mxGeometry x="-400" y="90" width="60" height="30" as="geometry" />
        </mxCell>
        <mxCell id="eINXOdEoiIzQeCJLC4Ov-30" value="四级" style="text;html=1;strokeColor=none;fillColor=none;align=center;verticalAlign=middle;whiteSpace=wrap;rounded=0;" vertex="1" parent="1">
          <mxGeometry x="-400" y="125" width="60" height="30" as="geometry" />
        </mxCell>
        <mxCell id="eINXOdEoiIzQeCJLC4Ov-31" value="" style="line;strokeWidth=2;html=1;strokeColor=#99FF99;" vertex="1" parent="1">
          <mxGeometry x="-450" y="135" width="40" height="10" as="geometry" />
        </mxCell>
        <mxCell id="eINXOdEoiIzQeCJLC4Ov-32" value="" style="line;strokeWidth=2;html=1;strokeColor=#FFCCE6;" vertex="1" parent="1">
          <mxGeometry x="-450" y="170" width="40" height="10" as="geometry" />
        </mxCell>
        <mxCell id="eINXOdEoiIzQeCJLC4Ov-33" value="" style="line;strokeWidth=2;html=1;strokeColor=#000099;" vertex="1" parent="1">
          <mxGeometry x="-450" y="210" width="40" height="10" as="geometry" />
        </mxCell>
        <mxCell id="eINXOdEoiIzQeCJLC4Ov-34" value="" style="line;strokeWidth=2;html=1;strokeColor=#009999;" vertex="1" parent="1">
          <mxGeometry x="-450" y="250" width="40" height="10" as="geometry" />
        </mxCell>
        <mxCell id="eINXOdEoiIzQeCJLC4Ov-35" value="" style="line;strokeWidth=2;html=1;strokeColor=#006600;" vertex="1" parent="1">
          <mxGeometry x="-450" y="290" width="40" height="10" as="geometry" />
        </mxCell>
        <mxCell id="eINXOdEoiIzQeCJLC4Ov-36" value="undistortperceptions" style="swimlane;whiteSpace=wrap;html=1;strokeColor=#FF66B3;" vertex="1" parent="1">
          <mxGeometry x="534" y="760" width="200" height="250" as="geometry" />
        </mxCell>
        <mxCell id="eINXOdEoiIzQeCJLC4Ov-40" value="作用：根据type进行不同的畸变校正，此处是对非perceptionType_3DCarRaw和PerceptionType_SkeletonRaw&lt;br&gt;进行处理（亦即perceptionType_ped）" style="text;html=1;strokeColor=none;fillColor=none;align=left;verticalAlign=middle;whiteSpace=wrap;rounded=0;" vertex="1" parent="eINXOdEoiIzQeCJLC4Ov-36">
          <mxGeometry x="5" y="30" width="190" height="100" as="geometry" />
        </mxCell>
        <mxCell id="eINXOdEoiIzQeCJLC4Ov-45" value="各参数如下：&lt;br&gt;&lt;span style=&quot;white-space: pre;&quot;&gt;	&lt;/span&gt;percepts:来自父函数的ped_perception_list，内容为&lt;br&gt;[ped_0,ped_1,…,ped_n,cyclist_0&lt;br&gt;,cyclist_1，…,cycylist_m]&lt;br&gt;&lt;span style=&quot;white-space: pre;&quot;&gt;	&lt;/span&gt;undistort: 来自父函数传递过来的cam_0的畸变参数" style="text;html=1;strokeColor=none;fillColor=none;align=left;verticalAlign=middle;whiteSpace=wrap;rounded=0;" vertex="1" parent="eINXOdEoiIzQeCJLC4Ov-36">
          <mxGeometry x="5" y="130" width="185" height="110" as="geometry" />
        </mxCell>
        <mxCell id="eINXOdEoiIzQeCJLC4Ov-37" value="UndistortPerceptionsRect" style="swimlane;whiteSpace=wrap;html=1;strokeColor=#99FF99;" vertex="1" parent="1">
          <mxGeometry x="780" y="770" width="200" height="160" as="geometry" />
        </mxCell>
        <mxCell id="eINXOdEoiIzQeCJLC4Ov-38" value="作用：对矩形框的上下左右四个点进行畸变校正" style="text;html=1;strokeColor=none;fillColor=none;align=left;verticalAlign=middle;whiteSpace=wrap;rounded=0;" vertex="1" parent="eINXOdEoiIzQeCJLC4Ov-37">
          <mxGeometry y="30" width="190" height="30" as="geometry" />
        </mxCell>
        <mxCell id="eINXOdEoiIzQeCJLC4Ov-39" value="各参数如下：&lt;br&gt;&lt;span style=&quot;white-space: pre;&quot;&gt;	&lt;/span&gt;pt_top: 上边界中点&lt;br&gt;&lt;span style=&quot;white-space: pre;&quot;&gt;	&lt;/span&gt;pt_bottom：下边界中点&lt;br&gt;&lt;span style=&quot;white-space: pre;&quot;&gt;	&lt;/span&gt;pt_left：左边界中点&lt;br&gt;&lt;span style=&quot;white-space: pre;&quot;&gt;	&lt;/span&gt;pt_right：右边界中点" style="text;html=1;strokeColor=none;fillColor=none;align=left;verticalAlign=middle;whiteSpace=wrap;rounded=0;" vertex="1" parent="eINXOdEoiIzQeCJLC4Ov-37">
          <mxGeometry y="70" width="167.5" height="85" as="geometry" />
        </mxCell>
        <mxCell id="eINXOdEoiIzQeCJLC4Ov-41" value="五级" style="text;html=1;strokeColor=none;fillColor=none;align=center;verticalAlign=middle;whiteSpace=wrap;rounded=0;" vertex="1" parent="1">
          <mxGeometry x="-400" y="160" width="60" height="30" as="geometry" />
        </mxCell>
        <mxCell id="eINXOdEoiIzQeCJLC4Ov-42" value="六级" style="text;html=1;strokeColor=none;fillColor=none;align=center;verticalAlign=middle;whiteSpace=wrap;rounded=0;" vertex="1" parent="1">
          <mxGeometry x="-400" y="200" width="60" height="30" as="geometry" />
        </mxCell>
        <mxCell id="eINXOdEoiIzQeCJLC4Ov-43" value="七级" style="text;html=1;strokeColor=none;fillColor=none;align=center;verticalAlign=middle;whiteSpace=wrap;rounded=0;" vertex="1" parent="1">
          <mxGeometry x="-400" y="240" width="60" height="30" as="geometry" />
        </mxCell>
        <mxCell id="eINXOdEoiIzQeCJLC4Ov-44" value="八级" style="text;html=1;strokeColor=none;fillColor=none;align=center;verticalAlign=middle;whiteSpace=wrap;rounded=0;" vertex="1" parent="1">
          <mxGeometry x="-400" y="280" width="60" height="30" as="geometry" />
        </mxCell>
        <mxCell id="eINXOdEoiIzQeCJLC4Ov-48" value="" style="endArrow=classic;html=1;rounded=0;exitX=0.5;exitY=1;exitDx=0;exitDy=0;" edge="1" parent="1" source="eINXOdEoiIzQeCJLC4Ov-8" target="eINXOdEoiIzQeCJLC4Ov-13">
          <mxGeometry width="50" height="50" relative="1" as="geometry">
            <mxPoint x="520" y="580" as="sourcePoint" />
            <mxPoint x="570" y="530" as="targetPoint" />
          </mxGeometry>
        </mxCell>
        <mxCell id="eINXOdEoiIzQeCJLC4Ov-49" value="" style="endArrow=classic;html=1;rounded=0;entryX=0.5;entryY=0;entryDx=0;entryDy=0;exitX=0.5;exitY=1;exitDx=0;exitDy=0;" edge="1" parent="1" source="eINXOdEoiIzQeCJLC4Ov-13" target="eINXOdEoiIzQeCJLC4Ov-15">
          <mxGeometry width="50" height="50" relative="1" as="geometry">
            <mxPoint x="80" y="390" as="sourcePoint" />
            <mxPoint x="570" y="530" as="targetPoint" />
          </mxGeometry>
        </mxCell>
        <mxCell id="eINXOdEoiIzQeCJLC4Ov-50" value="" style="endArrow=classic;html=1;rounded=0;entryX=0.5;entryY=0;entryDx=0;entryDy=0;exitX=0.5;exitY=1;exitDx=0;exitDy=0;" edge="1" parent="1" source="eINXOdEoiIzQeCJLC4Ov-15" target="eINXOdEoiIzQeCJLC4Ov-19">
          <mxGeometry width="50" height="50" relative="1" as="geometry">
            <mxPoint x="83" y="730" as="sourcePoint" />
            <mxPoint x="570" y="530" as="targetPoint" />
          </mxGeometry>
        </mxCell>
        <mxCell id="eINXOdEoiIzQeCJLC4Ov-55" value="call" style="endArrow=open;endSize=12;dashed=1;html=1;rounded=0;entryX=0;entryY=0.5;entryDx=0;entryDy=0;" edge="1" parent="1" target="eINXOdEoiIzQeCJLC4Ov-20">
          <mxGeometry width="160" relative="1" as="geometry">
            <mxPoint x="190" y="880" as="sourcePoint" />
            <mxPoint x="260" y="900" as="targetPoint" />
          </mxGeometry>
        </mxCell>
        <mxCell id="eINXOdEoiIzQeCJLC4Ov-56" value="call" style="endArrow=open;endSize=12;dashed=1;html=1;rounded=0;" edge="1" parent="1">
          <mxGeometry width="160" relative="1" as="geometry">
            <mxPoint x="470" y="870" as="sourcePoint" />
            <mxPoint x="530" y="870" as="targetPoint" />
          </mxGeometry>
        </mxCell>
        <mxCell id="eINXOdEoiIzQeCJLC4Ov-57" value="call" style="endArrow=open;endSize=12;dashed=1;html=1;rounded=0;" edge="1" parent="1">
          <mxGeometry width="160" relative="1" as="geometry">
            <mxPoint x="734" y="879.58" as="sourcePoint" />
            <mxPoint x="780" y="880" as="targetPoint" />
          </mxGeometry>
        </mxCell>
        <mxCell id="eINXOdEoiIzQeCJLC4Ov-59" value="RemoveInvalid" style="swimlane;whiteSpace=wrap;html=1;strokeColor=#6666FF;" vertex="1" parent="1">
          <mxGeometry x="265" y="1040" width="200" height="140" as="geometry" />
        </mxCell>
        <mxCell id="eINXOdEoiIzQeCJLC4Ov-61" value="作用：对感知框置信度低，感知框底边在消失点上方的感知框进行过滤。" style="text;html=1;strokeColor=none;fillColor=none;align=left;verticalAlign=middle;whiteSpace=wrap;rounded=0;" vertex="1" parent="eINXOdEoiIzQeCJLC4Ov-59">
          <mxGeometry x="7.5" y="30" width="190" height="50" as="geometry" />
        </mxCell>
        <mxCell id="eINXOdEoiIzQeCJLC4Ov-62" value="各参数如下：&lt;br&gt;&lt;span style=&quot;white-space: pre;&quot;&gt;	&lt;/span&gt;pr_l: ped_perception_list&lt;br&gt;&lt;span style=&quot;white-space: pre;&quot;&gt;	&lt;/span&gt;pr_l_ori:ped_origin" style="text;html=1;strokeColor=none;fillColor=none;align=left;verticalAlign=middle;whiteSpace=wrap;rounded=0;" vertex="1" parent="eINXOdEoiIzQeCJLC4Ov-59">
          <mxGeometry x="7.5" y="79" width="185" height="61" as="geometry" />
        </mxCell>
        <mxCell id="eINXOdEoiIzQeCJLC4Ov-60" value="Y" style="text;html=1;strokeColor=none;fillColor=none;align=center;verticalAlign=middle;whiteSpace=wrap;rounded=0;" vertex="1" parent="1">
          <mxGeometry x="80" y="400" width="60" height="30" as="geometry" />
        </mxCell>
        <mxCell id="eINXOdEoiIzQeCJLC4Ov-63" value="" style="endArrow=classic;html=1;rounded=0;exitX=0.5;exitY=1;exitDx=0;exitDy=0;" edge="1" parent="1" source="eINXOdEoiIzQeCJLC4Ov-20" target="eINXOdEoiIzQeCJLC4Ov-59">
          <mxGeometry width="50" height="50" relative="1" as="geometry">
            <mxPoint x="580" y="1190" as="sourcePoint" />
            <mxPoint x="630" y="1140" as="targetPoint" />
          </mxGeometry>
        </mxCell>
        <mxCell id="eINXOdEoiIzQeCJLC4Ov-64" value="NMSForPrRects" style="swimlane;whiteSpace=wrap;html=1;strokeColor=#6666FF;" vertex="1" parent="1">
          <mxGeometry x="265" y="1240" width="200" height="150" as="geometry" />
        </mxCell>
        <mxCell id="eINXOdEoiIzQeCJLC4Ov-65" value="作用：对重叠度较高的感知框进行过滤，保留在下方的感知框" style="text;html=1;strokeColor=none;fillColor=none;align=left;verticalAlign=middle;whiteSpace=wrap;rounded=0;" vertex="1" parent="eINXOdEoiIzQeCJLC4Ov-64">
          <mxGeometry x="7.5" y="30" width="190" height="50" as="geometry" />
        </mxCell>
        <mxCell id="eINXOdEoiIzQeCJLC4Ov-66" value="各参数如下：&lt;br&gt;r1_ratio: 交集宽度占当前框宽度比例&lt;br&gt;r2_ratio:交集宽度占被对比的框宽度比例" style="text;html=1;strokeColor=none;fillColor=none;align=left;verticalAlign=middle;whiteSpace=wrap;rounded=0;" vertex="1" parent="eINXOdEoiIzQeCJLC4Ov-64">
          <mxGeometry x="7.5" y="79" width="185" height="61" as="geometry" />
        </mxCell>
        <mxCell id="eINXOdEoiIzQeCJLC4Ov-67" value="MapPedPair" style="swimlane;whiteSpace=wrap;html=1;strokeColor=#6666FF;" vertex="1" parent="1">
          <mxGeometry x="265" y="1440" width="200" height="140" as="geometry" />
        </mxCell>
        <mxCell id="eINXOdEoiIzQeCJLC4Ov-68" value="作用：对cyclist和ped进行合并，用ped_pair的格式存储在ped_pairs中" style="text;html=1;strokeColor=none;fillColor=none;align=left;verticalAlign=middle;whiteSpace=wrap;rounded=0;" vertex="1" parent="eINXOdEoiIzQeCJLC4Ov-67">
          <mxGeometry x="7.5" y="30" width="190" height="50" as="geometry" />
        </mxCell>
        <mxCell id="eINXOdEoiIzQeCJLC4Ov-70" value="FilterPedPair" style="swimlane;whiteSpace=wrap;html=1;strokeColor=#6666FF;" vertex="1" parent="1">
          <mxGeometry x="265" y="1650" width="200" height="140" as="geometry" />
        </mxCell>
        <mxCell id="eINXOdEoiIzQeCJLC4Ov-71" value="作用：判断感知框是否处于边缘状态做删除操作" style="text;html=1;strokeColor=none;fillColor=none;align=left;verticalAlign=middle;whiteSpace=wrap;rounded=0;" vertex="1" parent="eINXOdEoiIzQeCJLC4Ov-70">
          <mxGeometry x="7.5" y="30" width="190" height="50" as="geometry" />
        </mxCell>
        <mxCell id="eINXOdEoiIzQeCJLC4Ov-73" value="RectCropByImage" style="swimlane;whiteSpace=wrap;html=1;strokeColor=#FF66B3;" vertex="1" parent="1">
          <mxGeometry x="534" y="1230" width="200" height="150" as="geometry" />
        </mxCell>
        <mxCell id="eINXOdEoiIzQeCJLC4Ov-74" value="作用：将感知框修正到图片的有效区域内" style="text;html=1;strokeColor=none;fillColor=none;align=left;verticalAlign=middle;whiteSpace=wrap;rounded=0;" vertex="1" parent="eINXOdEoiIzQeCJLC4Ov-73">
          <mxGeometry x="5" y="30" width="190" height="50" as="geometry" />
        </mxCell>
        <mxCell id="eINXOdEoiIzQeCJLC4Ov-75" value="各参数如下：&lt;br&gt;&lt;span style=&quot;white-space: pre;&quot;&gt;	&lt;/span&gt;croped: 感知框是否被修正&lt;br&gt;&lt;span style=&quot;white-space: pre;&quot;&gt;	&lt;/span&gt;bias: 可允许超出的范围值" style="text;html=1;strokeColor=none;fillColor=none;align=left;verticalAlign=middle;whiteSpace=wrap;rounded=0;" vertex="1" parent="eINXOdEoiIzQeCJLC4Ov-73">
          <mxGeometry x="5" y="80" width="185" height="60" as="geometry" />
        </mxCell>
        <mxCell id="eINXOdEoiIzQeCJLC4Ov-76" value="" style="endArrow=classic;html=1;rounded=0;exitX=0.5;exitY=1;exitDx=0;exitDy=0;entryX=0.5;entryY=0;entryDx=0;entryDy=0;" edge="1" parent="1" source="eINXOdEoiIzQeCJLC4Ov-62" target="eINXOdEoiIzQeCJLC4Ov-64">
          <mxGeometry width="50" height="50" relative="1" as="geometry">
            <mxPoint x="550" y="1320" as="sourcePoint" />
            <mxPoint x="600" y="1270" as="targetPoint" />
          </mxGeometry>
        </mxCell>
        <mxCell id="eINXOdEoiIzQeCJLC4Ov-77" value="call" style="endArrow=open;endSize=12;dashed=1;html=1;rounded=0;" edge="1" parent="1">
          <mxGeometry width="160" relative="1" as="geometry">
            <mxPoint x="465" y="1314.58" as="sourcePoint" />
            <mxPoint x="525" y="1314.58" as="targetPoint" />
          </mxGeometry>
        </mxCell>
        <mxCell id="eINXOdEoiIzQeCJLC4Ov-78" value="" style="endArrow=classic;html=1;rounded=0;exitX=0.5;exitY=1;exitDx=0;exitDy=0;entryX=0.5;entryY=0;entryDx=0;entryDy=0;" edge="1" parent="1" source="eINXOdEoiIzQeCJLC4Ov-64" target="eINXOdEoiIzQeCJLC4Ov-67">
          <mxGeometry width="50" height="50" relative="1" as="geometry">
            <mxPoint x="550" y="1370" as="sourcePoint" />
            <mxPoint x="600" y="1320" as="targetPoint" />
          </mxGeometry>
        </mxCell>
        <mxCell id="eINXOdEoiIzQeCJLC4Ov-79" value="CalcInterVsUnionRatio" style="swimlane;whiteSpace=wrap;html=1;strokeColor=#FF66B3;" vertex="1" parent="1">
          <mxGeometry x="534" y="1440" width="200" height="135" as="geometry" />
        </mxCell>
        <mxCell id="eINXOdEoiIzQeCJLC4Ov-80" value="作用：计算两个矩形框的交并比iou" style="text;html=1;strokeColor=none;fillColor=none;align=left;verticalAlign=middle;whiteSpace=wrap;rounded=0;" vertex="1" parent="eINXOdEoiIzQeCJLC4Ov-79">
          <mxGeometry x="5" y="30" width="190" height="50" as="geometry" />
        </mxCell>
        <mxCell id="eINXOdEoiIzQeCJLC4Ov-81" value="各参数如下：&lt;br&gt;&lt;span style=&quot;white-space: pre;&quot;&gt;	&lt;/span&gt;r1_ratio: 交集比上初始框&lt;br&gt;&lt;span style=&quot;white-space: pre;&quot;&gt;	&lt;/span&gt;r2_ratio: 交集比上对比框" style="text;html=1;strokeColor=none;fillColor=none;align=left;verticalAlign=middle;whiteSpace=wrap;rounded=0;" vertex="1" parent="eINXOdEoiIzQeCJLC4Ov-79">
          <mxGeometry x="5" y="65" width="185" height="60" as="geometry" />
        </mxCell>
        <mxCell id="eINXOdEoiIzQeCJLC4Ov-83" value="call" style="endArrow=open;endSize=12;dashed=1;html=1;rounded=0;" edge="1" parent="1">
          <mxGeometry width="160" relative="1" as="geometry">
            <mxPoint x="465" y="1520" as="sourcePoint" />
            <mxPoint x="525" y="1520" as="targetPoint" />
          </mxGeometry>
        </mxCell>
        <mxCell id="eINXOdEoiIzQeCJLC4Ov-84" value="" style="endArrow=classic;html=1;rounded=0;exitX=0.5;exitY=1;exitDx=0;exitDy=0;entryX=0.5;entryY=0;entryDx=0;entryDy=0;" edge="1" parent="1" source="eINXOdEoiIzQeCJLC4Ov-67" target="eINXOdEoiIzQeCJLC4Ov-70">
          <mxGeometry width="50" height="50" relative="1" as="geometry">
            <mxPoint x="550" y="1680" as="sourcePoint" />
            <mxPoint x="600" y="1630" as="targetPoint" />
          </mxGeometry>
        </mxCell>
        <mxCell id="eINXOdEoiIzQeCJLC4Ov-85" value="&lt;h1&gt;感知框的属性值&lt;/h1&gt;&lt;p&gt;哪一步对属性值进行赋值？？&lt;/p&gt;" style="text;html=1;strokeColor=none;fillColor=none;spacing=5;spacingTop=-20;whiteSpace=wrap;overflow=hidden;rounded=0;" vertex="1" parent="1">
          <mxGeometry x="530" y="1670" width="190" height="120" as="geometry" />
        </mxCell>
        <mxCell id="eINXOdEoiIzQeCJLC4Ov-86" value="将2pe任务放入asyn_prfortask_list中" style="rounded=0;whiteSpace=wrap;html=1;" vertex="1" parent="1">
          <mxGeometry x="-70" y="1840" width="300" height="60" as="geometry" />
        </mxCell>
        <mxCell id="eINXOdEoiIzQeCJLC4Ov-88" value="" style="endArrow=classic;html=1;rounded=0;exitX=0.5;exitY=1;exitDx=0;exitDy=0;entryX=0.5;entryY=0;entryDx=0;entryDy=0;" edge="1" parent="1" source="eINXOdEoiIzQeCJLC4Ov-19" target="eINXOdEoiIzQeCJLC4Ov-86">
          <mxGeometry width="50" height="50" relative="1" as="geometry">
            <mxPoint x="510" y="1190" as="sourcePoint" />
            <mxPoint x="20" y="1390" as="targetPoint" />
          </mxGeometry>
        </mxCell>
        <mxCell id="eINXOdEoiIzQeCJLC4Ov-89" value="PostRequestForModel" style="swimlane;whiteSpace=wrap;html=1;" vertex="1" parent="1">
          <mxGeometry x="-20" y="1990" width="200" height="120" as="geometry" />
        </mxCell>
        <mxCell id="eINXOdEoiIzQeCJLC4Ov-91" value="作用：对待检测的感知框送入2pe模型进行检测，此步骤需要在板端运行" style="text;html=1;strokeColor=none;fillColor=none;align=left;verticalAlign=middle;whiteSpace=wrap;rounded=0;" vertex="1" parent="eINXOdEoiIzQeCJLC4Ov-89">
          <mxGeometry x="5" y="30" width="190" height="70" as="geometry" />
        </mxCell>
        <mxCell id="eINXOdEoiIzQeCJLC4Ov-90" value="" style="endArrow=classic;html=1;rounded=0;exitX=0.5;exitY=1;exitDx=0;exitDy=0;" edge="1" parent="1" source="eINXOdEoiIzQeCJLC4Ov-86" target="eINXOdEoiIzQeCJLC4Ov-89">
          <mxGeometry width="50" height="50" relative="1" as="geometry">
            <mxPoint x="510" y="1930" as="sourcePoint" />
            <mxPoint x="560" y="1880" as="targetPoint" />
          </mxGeometry>
        </mxCell>
        <mxCell id="eINXOdEoiIzQeCJLC4Ov-92" value="workflow-&amp;gt;return传递FW5的输出结果" style="rounded=1;whiteSpace=wrap;html=1;" vertex="1" parent="1">
          <mxGeometry x="-40" y="2190" width="240" height="60" as="geometry" />
        </mxCell>
        <mxCell id="eINXOdEoiIzQeCJLC4Ov-93" value="" style="endArrow=classic;html=1;rounded=0;exitX=0.5;exitY=1;exitDx=0;exitDy=0;entryX=0.5;entryY=0;entryDx=0;entryDy=0;" edge="1" parent="1" source="eINXOdEoiIzQeCJLC4Ov-89" target="eINXOdEoiIzQeCJLC4Ov-92">
          <mxGeometry width="50" height="50" relative="1" as="geometry">
            <mxPoint x="510" y="1940" as="sourcePoint" />
            <mxPoint x="560" y="1890" as="targetPoint" />
          </mxGeometry>
        </mxCell>
        <mxCell id="eINXOdEoiIzQeCJLC4Ov-94" value="GetTrackingConfParamMsg" style="swimlane;whiteSpace=wrap;html=1;" vertex="1" parent="1">
          <mxGeometry x="1310" y="300" width="250" height="250" as="geometry" />
        </mxCell>
        <mxCell id="eINXOdEoiIzQeCJLC4Ov-95" value="作用：主要是为了获取需跟踪的行人目标&lt;br&gt;的系统参数值" style="text;html=1;align=left;verticalAlign=middle;resizable=0;points=[];autosize=1;strokeColor=none;fillColor=none;" vertex="1" parent="eINXOdEoiIzQeCJLC4Ov-94">
          <mxGeometry x="7.5" y="30" width="240" height="40" as="geometry" />
        </mxCell>
        <mxCell id="eINXOdEoiIzQeCJLC4Ov-96" value="各参数如下：" style="text;html=1;strokeColor=none;fillColor=none;align=center;verticalAlign=middle;whiteSpace=wrap;rounded=0;" vertex="1" parent="eINXOdEoiIzQeCJLC4Ov-94">
          <mxGeometry y="70" width="90" height="30" as="geometry" />
        </mxCell>
        <mxCell id="eINXOdEoiIzQeCJLC4Ov-97" value="min_valid_frames_:最少连续帧&lt;br&gt;min_valid_conf_:最小置信度&lt;br&gt;min_valid_acc_conf:&lt;br&gt;min_accept_con_without_cnn_:&lt;br&gt;min_accept_avg_conf_:&lt;br&gt;max_miss_det_:最大丢失帧数&lt;br&gt;use_cam_validate_:是否使用相机消失点去过滤非路面目标&lt;br&gt;use_lk_:&lt;br&gt;use_kf_:" style="text;html=1;strokeColor=none;fillColor=none;align=left;verticalAlign=middle;whiteSpace=wrap;rounded=0;" vertex="1" parent="eINXOdEoiIzQeCJLC4Ov-94">
          <mxGeometry x="26.25" y="90" width="202.5" height="150" as="geometry" />
        </mxCell>
        <mxCell id="eINXOdEoiIzQeCJLC4Ov-98" value="GetGlobalMessage" style="swimlane;whiteSpace=wrap;html=1;" vertex="1" parent="1">
          <mxGeometry x="1310" y="610" width="250" height="140" as="geometry" />
        </mxCell>
        <mxCell id="eINXOdEoiIzQeCJLC4Ov-99" value="作用：获取context message" style="text;html=1;align=left;verticalAlign=middle;resizable=0;points=[];autosize=1;strokeColor=none;fillColor=none;" vertex="1" parent="eINXOdEoiIzQeCJLC4Ov-98">
          <mxGeometry x="7.5" y="35" width="170" height="30" as="geometry" />
        </mxCell>
        <mxCell id="eINXOdEoiIzQeCJLC4Ov-100" value="各参数如下：&lt;br&gt;无" style="text;html=1;strokeColor=none;fillColor=none;align=center;verticalAlign=middle;whiteSpace=wrap;rounded=0;" vertex="1" parent="eINXOdEoiIzQeCJLC4Ov-98">
          <mxGeometry y="70" width="90" height="30" as="geometry" />
        </mxCell>
        <mxCell id="eINXOdEoiIzQeCJLC4Ov-102" value="GetMode" style="swimlane;whiteSpace=wrap;html=1;" vertex="1" parent="1">
          <mxGeometry x="1274.38" y="780" width="321.25" height="300" as="geometry" />
        </mxCell>
        <mxCell id="eINXOdEoiIzQeCJLC4Ov-103" value="作用：获取unet_onoff_flag_使能标志mode_[16]" style="text;html=1;align=left;verticalAlign=middle;resizable=0;points=[];autosize=1;strokeColor=none;fillColor=none;" vertex="1" parent="eINXOdEoiIzQeCJLC4Ov-102">
          <mxGeometry x="7.5" y="35" width="280" height="30" as="geometry" />
        </mxCell>
        <mxCell id="eINXOdEoiIzQeCJLC4Ov-104" value="各参数如下：" style="text;html=1;strokeColor=none;fillColor=none;align=center;verticalAlign=middle;whiteSpace=wrap;rounded=0;" vertex="1" parent="eINXOdEoiIzQeCJLC4Ov-102">
          <mxGeometry y="70" width="90" height="30" as="geometry" />
        </mxCell>
        <mxCell id="eINXOdEoiIzQeCJLC4Ov-105" value="mode_[4]=2&lt;br&gt;mode_[0]=36&lt;br&gt;mode_[2]=img_bundle_channel_id_set_.size()&lt;br&gt;mode_[6]=3&lt;br&gt;mode_[13]=1&lt;br&gt;mode_[7]=standard_dir.size()&lt;br&gt;mode_[8]=seek_mode&lt;br&gt;mode_[9]=external_mode&lt;br&gt;mode_[10]=img_bundle_channel_id_set_.size()&lt;br&gt;mode_[16]=engine_conf-&amp;gt;GetIntValue(&quot;unet_on_off_flag&quot;,&lt;br&gt;g_default_int_config[DEFAULT_UNET_ONOFF_FLAG])" style="text;html=1;strokeColor=none;fillColor=none;align=left;verticalAlign=middle;whiteSpace=wrap;rounded=0;" vertex="1" parent="eINXOdEoiIzQeCJLC4Ov-102">
          <mxGeometry x="15" y="100" width="305" height="180" as="geometry" />
        </mxCell>
        <mxCell id="eINXOdEoiIzQeCJLC4Ov-106" value="Getsetting" style="swimlane;whiteSpace=wrap;html=1;" vertex="1" parent="1">
          <mxGeometry x="1232.8200000000002" y="1100" width="404.37" height="390" as="geometry" />
        </mxCell>
        <mxCell id="eINXOdEoiIzQeCJLC4Ov-107" value="作用：获取设置值settings_[25]" style="text;html=1;align=left;verticalAlign=middle;resizable=0;points=[];autosize=1;strokeColor=none;fillColor=none;" vertex="1" parent="eINXOdEoiIzQeCJLC4Ov-106">
          <mxGeometry x="7.5" y="35" width="190" height="30" as="geometry" />
        </mxCell>
        <mxCell id="eINXOdEoiIzQeCJLC4Ov-108" value="各参数如下：" style="text;html=1;strokeColor=none;fillColor=none;align=center;verticalAlign=middle;whiteSpace=wrap;rounded=0;" vertex="1" parent="eINXOdEoiIzQeCJLC4Ov-106">
          <mxGeometry y="60" width="90" height="30" as="geometry" />
        </mxCell>
        <mxCell id="eINXOdEoiIzQeCJLC4Ov-109" value="settings_[0]=sp_fpga_model&lt;br&gt;settings_[1]=TrackingConfParamMsg(camera_supported)&lt;br&gt;settings_[29]=conf_setting_msg&lt;br&gt;settings_[8]=IntMessage(jpeg_quality)&lt;br&gt;settings_[10]=template_msg&lt;br&gt;settings_[11]=IntMessage(5)&lt;br&gt;settings_[12]=camera_en_msg&lt;br&gt;settings_[13]=GetInstance(0,1)&lt;br&gt;settings_[14]=VCSConversionMsg(1)&lt;br&gt;settings_[15]=CameraMsg(1)&lt;br&gt;settings_[16]=track_func_msg&lt;br&gt;settings_[20]=IntMessage(check_delay)&lt;br&gt;settings_[21]=new InterruptStatusMsg()&lt;br&gt;settings_[22]=camera_type_list&lt;br&gt;settings_[23]=SensorsParamMsg(count)&lt;br&gt;settings_[24]=runtime_env_msg&lt;br&gt;settings_[25]=make_shared&amp;lt;SceneMsg&amp;gt;()&lt;br&gt;settings_[26]=param{config_file,instance_id,init_glog_}&lt;br&gt;settings_[27]=ForwardMonitor(enable_fw_monitor,period_time,delay_start)&lt;br&gt;settings_[28]=diag_action_msg&lt;br&gt;settings_[30]=IntMessage(1)" style="text;html=1;strokeColor=none;fillColor=none;align=left;verticalAlign=middle;whiteSpace=wrap;rounded=0;" vertex="1" parent="eINXOdEoiIzQeCJLC4Ov-106">
          <mxGeometry x="6.56" y="80" width="393.44" height="310" as="geometry" />
        </mxCell>
        <mxCell id="eINXOdEoiIzQeCJLC4Ov-110" value="ParsingSceneMsg" style="swimlane;whiteSpace=wrap;html=1;" vertex="1" parent="1">
          <mxGeometry x="1311.1" y="1530" width="250" height="170" as="geometry" />
        </mxCell>
        <mxCell id="eINXOdEoiIzQeCJLC4Ov-111" value="作用：获取工况" style="text;html=1;align=left;verticalAlign=middle;resizable=0;points=[];autosize=1;strokeColor=none;fillColor=none;" vertex="1" parent="eINXOdEoiIzQeCJLC4Ov-110">
          <mxGeometry x="7.5" y="35" width="110" height="30" as="geometry" />
        </mxCell>
        <mxCell id="eINXOdEoiIzQeCJLC4Ov-112" value="各参数如下：" style="text;html=1;strokeColor=none;fillColor=none;align=center;verticalAlign=middle;whiteSpace=wrap;rounded=0;" vertex="1" parent="eINXOdEoiIzQeCJLC4Ov-110">
          <mxGeometry x="7.5" y="65" width="90" height="30" as="geometry" />
        </mxCell>
        <mxCell id="eINXOdEoiIzQeCJLC4Ov-113" value="weather_type:天气条件&lt;br&gt;scene_type:场景类型&lt;br&gt;time_type:时间类型&lt;br&gt;light_type:灯光类型" style="text;html=1;strokeColor=none;fillColor=none;align=left;verticalAlign=middle;whiteSpace=wrap;rounded=0;" vertex="1" parent="eINXOdEoiIzQeCJLC4Ov-110">
          <mxGeometry x="23.75" y="95" width="202.5" height="70" as="geometry" />
        </mxCell>
        <mxCell id="eINXOdEoiIzQeCJLC4Ov-114" value="CheckInputLink" style="swimlane;whiteSpace=wrap;html=1;" vertex="1" parent="1">
          <mxGeometry x="1310" y="1850" width="250" height="100" as="geometry" />
        </mxCell>
        <mxCell id="eINXOdEoiIzQeCJLC4Ov-115" value="作用：检查输入接口数据状态，此处&lt;br&gt;强制返回true" style="text;html=1;align=left;verticalAlign=middle;resizable=0;points=[];autosize=1;strokeColor=none;fillColor=none;" vertex="1" parent="eINXOdEoiIzQeCJLC4Ov-114">
          <mxGeometry x="7.5" y="30" width="220" height="40" as="geometry" />
        </mxCell>
        <mxCell id="eINXOdEoiIzQeCJLC4Ov-118" value="CheckOdometryException" style="swimlane;whiteSpace=wrap;html=1;" vertex="1" parent="1">
          <mxGeometry x="1311.1" y="2110" width="250" height="270" as="geometry" />
        </mxCell>
        <mxCell id="eINXOdEoiIzQeCJLC4Ov-119" value="作用：如果是前视摄像头，则进行里程计&lt;br&gt;信息是否正常的判断，只需判断一次即可" style="text;html=1;align=left;verticalAlign=middle;resizable=0;points=[];autosize=1;strokeColor=none;fillColor=none;" vertex="1" parent="eINXOdEoiIzQeCJLC4Ov-118">
          <mxGeometry x="7.5" y="30" width="240" height="40" as="geometry" />
        </mxCell>
        <mxCell id="eINXOdEoiIzQeCJLC4Ov-120" value="各参数如下：" style="text;html=1;strokeColor=none;fillColor=none;align=center;verticalAlign=middle;whiteSpace=wrap;rounded=0;" vertex="1" parent="eINXOdEoiIzQeCJLC4Ov-118">
          <mxGeometry y="70" width="90" height="30" as="geometry" />
        </mxCell>
        <mxCell id="eINXOdEoiIzQeCJLC4Ov-121" value="odo_jump_flag_:是否进行里程计检查标志位&lt;br&gt;firstinodo:是否首次读取里程计信息&lt;br&gt;" style="text;html=1;strokeColor=none;fillColor=none;align=left;verticalAlign=middle;whiteSpace=wrap;rounded=0;" vertex="1" parent="eINXOdEoiIzQeCJLC4Ov-118">
          <mxGeometry x="5" y="100" width="240" height="60" as="geometry" />
        </mxCell>
        <mxCell id="eINXOdEoiIzQeCJLC4Ov-134" value="GetPredictPathCoeff" style="swimlane;whiteSpace=wrap;html=1;" vertex="1" parent="1">
          <mxGeometry x="1311.1" y="3310" width="250" height="170" as="geometry" />
        </mxCell>
        <mxCell id="eINXOdEoiIzQeCJLC4Ov-135" value="作用：获取道路线曲线系数" style="text;html=1;align=left;verticalAlign=middle;resizable=0;points=[];autosize=1;strokeColor=none;fillColor=none;" vertex="1" parent="eINXOdEoiIzQeCJLC4Ov-134">
          <mxGeometry x="7.5" y="35" width="170" height="30" as="geometry" />
        </mxCell>
        <mxCell id="eINXOdEoiIzQeCJLC4Ov-136" value="各参数如下：" style="text;html=1;strokeColor=none;fillColor=none;align=center;verticalAlign=middle;whiteSpace=wrap;rounded=0;" vertex="1" parent="eINXOdEoiIzQeCJLC4Ov-134">
          <mxGeometry y="70" width="90" height="30" as="geometry" />
        </mxCell>
        <mxCell id="eINXOdEoiIzQeCJLC4Ov-138" value="RefreshPath" style="swimlane;whiteSpace=wrap;html=1;" vertex="1" parent="1">
          <mxGeometry x="1311.1" y="3507" width="250" height="250" as="geometry" />
        </mxCell>
        <mxCell id="eINXOdEoiIzQeCJLC4Ov-139" value="作用：将道路线的系数存储在cur_path_中" style="text;html=1;align=left;verticalAlign=middle;resizable=0;points=[];autosize=1;strokeColor=none;fillColor=none;" vertex="1" parent="eINXOdEoiIzQeCJLC4Ov-138">
          <mxGeometry x="7.5" y="35" width="240" height="30" as="geometry" />
        </mxCell>
        <mxCell id="eINXOdEoiIzQeCJLC4Ov-140" value="各参数如下：" style="text;html=1;strokeColor=none;fillColor=none;align=center;verticalAlign=middle;whiteSpace=wrap;rounded=0;" vertex="1" parent="eINXOdEoiIzQeCJLC4Ov-138">
          <mxGeometry y="70" width="90" height="30" as="geometry" />
        </mxCell>
        <mxCell id="eINXOdEoiIzQeCJLC4Ov-142" value="PredictDetector" style="swimlane;whiteSpace=wrap;html=1;" vertex="1" parent="1">
          <mxGeometry x="1311.1" y="3885" width="250" height="250" as="geometry" />
        </mxCell>
        <mxCell id="eINXOdEoiIzQeCJLC4Ov-143" value="作用：主要是为了获取需跟踪的行人目标&lt;br&gt;的系统参数值" style="text;html=1;align=left;verticalAlign=middle;resizable=0;points=[];autosize=1;strokeColor=none;fillColor=none;" vertex="1" parent="eINXOdEoiIzQeCJLC4Ov-142">
          <mxGeometry x="7.5" y="30" width="240" height="40" as="geometry" />
        </mxCell>
        <mxCell id="eINXOdEoiIzQeCJLC4Ov-144" value="各参数如下：&lt;br&gt;pedestrians_: 行人跟踪列表&lt;br style=&quot;border-color: var(--border-color); text-align: left;&quot;&gt;&lt;span style=&quot;text-align: left;&quot;&gt;Input_count:&amp;nbsp;&lt;/span&gt;" style="text;html=1;strokeColor=none;fillColor=none;align=left;verticalAlign=middle;whiteSpace=wrap;rounded=0;" vertex="1" parent="eINXOdEoiIzQeCJLC4Ov-142">
          <mxGeometry x="7.5" y="70" width="210" height="50" as="geometry" />
        </mxCell>
        <mxCell id="eINXOdEoiIzQeCJLC4Ov-146" value="WorkModeSwitch4PEHead" style="swimlane;whiteSpace=wrap;html=1;" vertex="1" parent="1">
          <mxGeometry x="1311.1" y="5010" width="250" height="140" as="geometry" />
        </mxCell>
        <mxCell id="eINXOdEoiIzQeCJLC4Ov-147" value="作用：将停车模型中的人头检测功能打开" style="text;html=1;align=left;verticalAlign=middle;resizable=0;points=[];autosize=1;strokeColor=none;fillColor=none;" vertex="1" parent="eINXOdEoiIzQeCJLC4Ov-146">
          <mxGeometry x="7.5" y="35" width="240" height="30" as="geometry" />
        </mxCell>
        <mxCell id="eINXOdEoiIzQeCJLC4Ov-148" value="各参数如下：&lt;br&gt;parking_scene_checker:&lt;br style=&quot;border-color: var(--border-color); text-align: left;&quot;&gt;&lt;span style=&quot;text-align: left;&quot;&gt;is_parking_scene:&lt;/span&gt;&lt;br style=&quot;border-color: var(--border-color); text-align: left;&quot;&gt;&lt;span style=&quot;text-align: left;&quot;&gt;enable_head_output_parking_&lt;/span&gt;" style="text;html=1;strokeColor=none;fillColor=none;align=left;verticalAlign=middle;whiteSpace=wrap;rounded=0;" vertex="1" parent="eINXOdEoiIzQeCJLC4Ov-146">
          <mxGeometry x="7.5" y="65" width="200" height="65" as="geometry" />
        </mxCell>
        <mxCell id="eINXOdEoiIzQeCJLC4Ov-150" value="InitPerceptionResults" style="swimlane;whiteSpace=wrap;html=1;" vertex="1" parent="1">
          <mxGeometry x="1311.1" y="5210" width="250" height="90" as="geometry" />
        </mxCell>
        <mxCell id="eINXOdEoiIzQeCJLC4Ov-151" value="作用：将ped/cyclist/head存放在&lt;br&gt;pr_l_ori和pr_l_" style="text;html=1;align=left;verticalAlign=middle;resizable=0;points=[];autosize=1;strokeColor=none;fillColor=none;" vertex="1" parent="eINXOdEoiIzQeCJLC4Ov-150">
          <mxGeometry x="7.5" y="30" width="190" height="40" as="geometry" />
        </mxCell>
        <mxCell id="eINXOdEoiIzQeCJLC4Ov-154" value="GetMergedPair" style="swimlane;whiteSpace=wrap;html=1;" vertex="1" parent="1">
          <mxGeometry x="1289.78" y="5340" width="292.65" height="130" as="geometry" />
        </mxCell>
        <mxCell id="eINXOdEoiIzQeCJLC4Ov-155" value="作用：返回mergerd_pair_，来自有后方的函数ped&lt;br&gt;还是车辆模块的结果？" style="text;html=1;align=left;verticalAlign=middle;resizable=0;points=[];autosize=1;strokeColor=none;fillColor=none;" vertex="1" parent="eINXOdEoiIzQeCJLC4Ov-154">
          <mxGeometry x="3.75" y="25" width="290" height="40" as="geometry" />
        </mxCell>
        <mxCell id="eINXOdEoiIzQeCJLC4Ov-156" value="各参数如下：&lt;br&gt;merged_pair_:" style="text;html=1;strokeColor=none;fillColor=none;align=left;verticalAlign=middle;whiteSpace=wrap;rounded=0;" vertex="1" parent="eINXOdEoiIzQeCJLC4Ov-154">
          <mxGeometry x="3.75" y="80" width="150" height="30" as="geometry" />
        </mxCell>
        <mxCell id="eINXOdEoiIzQeCJLC4Ov-158" value="GetOriginPerceptionList" style="swimlane;whiteSpace=wrap;html=1;" vertex="1" parent="1">
          <mxGeometry x="1311.1" y="5520" width="250" height="80" as="geometry" />
        </mxCell>
        <mxCell id="eINXOdEoiIzQeCJLC4Ov-159" value="作用：返回车辆的感知结果列表" style="text;html=1;align=left;verticalAlign=middle;resizable=0;points=[];autosize=1;strokeColor=none;fillColor=none;" vertex="1" parent="eINXOdEoiIzQeCJLC4Ov-158">
          <mxGeometry x="7.5" y="35" width="190" height="30" as="geometry" />
        </mxCell>
        <mxCell id="eINXOdEoiIzQeCJLC4Ov-162" value="FilterPedOnTrunck" style="swimlane;whiteSpace=wrap;html=1;" vertex="1" parent="1">
          <mxGeometry x="1311.11" y="5650" width="250" height="80" as="geometry" />
        </mxCell>
        <mxCell id="eINXOdEoiIzQeCJLC4Ov-163" value="作用：删除行人与车辆可以融合的目标" style="text;html=1;align=left;verticalAlign=middle;resizable=0;points=[];autosize=1;strokeColor=none;fillColor=none;" vertex="1" parent="eINXOdEoiIzQeCJLC4Ov-162">
          <mxGeometry x="7.5" y="35" width="230" height="30" as="geometry" />
        </mxCell>
        <mxCell id="eINXOdEoiIzQeCJLC4Ov-166" value="PreProcessOneFrame" style="swimlane;whiteSpace=wrap;html=1;" vertex="1" parent="1">
          <mxGeometry x="1311.11" y="5790" width="250" height="250" as="geometry" />
        </mxCell>
        <mxCell id="eINXOdEoiIzQeCJLC4Ov-167" value="作用：主要是为了获取需跟踪的行人目标&lt;br&gt;的系统参数值" style="text;html=1;align=left;verticalAlign=middle;resizable=0;points=[];autosize=1;strokeColor=none;fillColor=none;" vertex="1" parent="eINXOdEoiIzQeCJLC4Ov-166">
          <mxGeometry x="7.5" y="30" width="240" height="40" as="geometry" />
        </mxCell>
        <mxCell id="eINXOdEoiIzQeCJLC4Ov-168" value="各参数如下：" style="text;html=1;strokeColor=none;fillColor=none;align=center;verticalAlign=middle;whiteSpace=wrap;rounded=0;" vertex="1" parent="eINXOdEoiIzQeCJLC4Ov-166">
          <mxGeometry y="70" width="90" height="30" as="geometry" />
        </mxCell>
        <mxCell id="eINXOdEoiIzQeCJLC4Ov-169" value="min_valid_frames_:最少连续帧&lt;br&gt;min_valid_conf_:最小置信度&lt;br&gt;min_valid_acc_conf:&lt;br&gt;min_accept_con_without_cnn_:&lt;br&gt;min_accept_avg_conf_:&lt;br&gt;max_miss_det_:最大丢失帧数&lt;br&gt;use_cam_validate_:是否使用相机消失点去过滤非路面目标&lt;br&gt;use_lk_:&lt;br&gt;use_kf_:" style="text;html=1;strokeColor=none;fillColor=none;align=left;verticalAlign=middle;whiteSpace=wrap;rounded=0;" vertex="1" parent="eINXOdEoiIzQeCJLC4Ov-166">
          <mxGeometry x="26.25" y="90" width="202.5" height="150" as="geometry" />
        </mxCell>
        <mxCell id="eINXOdEoiIzQeCJLC4Ov-170" value="GetMergedPair" style="swimlane;whiteSpace=wrap;html=1;" vertex="1" parent="1">
          <mxGeometry x="1310" y="7140" width="250" height="160" as="geometry" />
        </mxCell>
        <mxCell id="eINXOdEoiIzQeCJLC4Ov-171" value="作用：返回merged_pair_" style="text;html=1;align=left;verticalAlign=middle;resizable=0;points=[];autosize=1;strokeColor=none;fillColor=none;" vertex="1" parent="eINXOdEoiIzQeCJLC4Ov-170">
          <mxGeometry x="7.5" y="35" width="160" height="30" as="geometry" />
        </mxCell>
        <mxCell id="eINXOdEoiIzQeCJLC4Ov-174" value="SetCoveredVehByPed" style="swimlane;whiteSpace=wrap;html=1;" vertex="1" parent="1">
          <mxGeometry x="1310" y="7460" width="250" height="150" as="geometry" />
        </mxCell>
        <mxCell id="eINXOdEoiIzQeCJLC4Ov-175" value="作用：车辆模块" style="text;html=1;align=left;verticalAlign=middle;resizable=0;points=[];autosize=1;strokeColor=none;fillColor=none;" vertex="1" parent="eINXOdEoiIzQeCJLC4Ov-174">
          <mxGeometry x="7.5" y="35" width="110" height="30" as="geometry" />
        </mxCell>
        <mxCell id="eINXOdEoiIzQeCJLC4Ov-176" value="各参数如下：" style="text;html=1;strokeColor=none;fillColor=none;align=center;verticalAlign=middle;whiteSpace=wrap;rounded=0;" vertex="1" parent="eINXOdEoiIzQeCJLC4Ov-174">
          <mxGeometry y="70" width="90" height="30" as="geometry" />
        </mxCell>
        <mxCell id="eINXOdEoiIzQeCJLC4Ov-178" value="SetVehSideRectCoveredByPed" style="swimlane;whiteSpace=wrap;html=1;" vertex="1" parent="1">
          <mxGeometry x="1310" y="7770" width="250" height="250" as="geometry" />
        </mxCell>
        <mxCell id="eINXOdEoiIzQeCJLC4Ov-180" value="各参数如下：" style="text;html=1;strokeColor=none;fillColor=none;align=center;verticalAlign=middle;whiteSpace=wrap;rounded=0;" vertex="1" parent="eINXOdEoiIzQeCJLC4Ov-178">
          <mxGeometry y="70" width="90" height="30" as="geometry" />
        </mxCell>
        <mxCell id="eINXOdEoiIzQeCJLC4Ov-478" value="作用：车辆模块" style="text;html=1;align=left;verticalAlign=middle;resizable=0;points=[];autosize=1;strokeColor=none;fillColor=none;" vertex="1" parent="eINXOdEoiIzQeCJLC4Ov-178">
          <mxGeometry x="8.610000000000127" y="30" width="110" height="30" as="geometry" />
        </mxCell>
        <mxCell id="eINXOdEoiIzQeCJLC4Ov-182" value="SetVehBoardSideCoveredByPed" style="swimlane;whiteSpace=wrap;html=1;" vertex="1" parent="1">
          <mxGeometry x="1310" y="8070" width="250" height="250" as="geometry" />
        </mxCell>
        <mxCell id="eINXOdEoiIzQeCJLC4Ov-477" value="作用：车辆模块" style="text;html=1;align=left;verticalAlign=middle;resizable=0;points=[];autosize=1;strokeColor=none;fillColor=none;" vertex="1" parent="eINXOdEoiIzQeCJLC4Ov-182">
          <mxGeometry x="16" y="30" width="110" height="30" as="geometry" />
        </mxCell>
        <mxCell id="eINXOdEoiIzQeCJLC4Ov-186" value="workflow-&amp;gt;return传递FW0的输出结果" style="rounded=1;whiteSpace=wrap;html=1;" vertex="1" parent="1">
          <mxGeometry x="1316.1" y="8380" width="240" height="60" as="geometry" />
        </mxCell>
        <mxCell id="eINXOdEoiIzQeCJLC4Ov-187" value="RemoveInvalid" style="swimlane;whiteSpace=wrap;html=1;strokeColor=#6666FF;" vertex="1" parent="1">
          <mxGeometry x="1630" y="5790" width="200" height="140" as="geometry" />
        </mxCell>
        <mxCell id="eINXOdEoiIzQeCJLC4Ov-456" value="作用：对感知框置信度低，感知框底边在消失点上方的感知框进行过滤。" style="text;html=1;strokeColor=none;fillColor=none;align=left;verticalAlign=middle;whiteSpace=wrap;rounded=0;" vertex="1" parent="eINXOdEoiIzQeCJLC4Ov-187">
          <mxGeometry x="5.000000000000055" y="30" width="190" height="50" as="geometry" />
        </mxCell>
        <mxCell id="eINXOdEoiIzQeCJLC4Ov-457" value="各参数如下：&lt;br&gt;&lt;span style=&quot;white-space: pre;&quot;&gt;	&lt;/span&gt;pr_l: ped_perception_list&lt;br&gt;&lt;span style=&quot;white-space: pre;&quot;&gt;	&lt;/span&gt;pr_l_ori:ped_origin" style="text;html=1;strokeColor=none;fillColor=none;align=left;verticalAlign=middle;whiteSpace=wrap;rounded=0;" vertex="1" parent="eINXOdEoiIzQeCJLC4Ov-187">
          <mxGeometry x="5.000000000000055" y="79" width="185" height="61" as="geometry" />
        </mxCell>
        <mxCell id="eINXOdEoiIzQeCJLC4Ov-189" value="NMSForPrRects" style="swimlane;whiteSpace=wrap;html=1;strokeColor=#6666FF;" vertex="1" parent="1">
          <mxGeometry x="1627.5" y="5970" width="200" height="140" as="geometry" />
        </mxCell>
        <mxCell id="eINXOdEoiIzQeCJLC4Ov-459" value="作用：对重叠度较高的感知框进行过滤，保留在下方的感知框" style="text;html=1;strokeColor=none;fillColor=none;align=left;verticalAlign=middle;whiteSpace=wrap;rounded=0;" vertex="1" parent="eINXOdEoiIzQeCJLC4Ov-189">
          <mxGeometry x="2.5" y="15" width="190" height="50" as="geometry" />
        </mxCell>
        <mxCell id="eINXOdEoiIzQeCJLC4Ov-460" value="各参数如下：&lt;br&gt;r1_ratio: 交集宽度占当前框宽度比例&lt;br&gt;r2_ratio:交集宽度占被对比的框宽度比例" style="text;html=1;strokeColor=none;fillColor=none;align=left;verticalAlign=middle;whiteSpace=wrap;rounded=0;" vertex="1" parent="eINXOdEoiIzQeCJLC4Ov-189">
          <mxGeometry x="2.5" y="64" width="185" height="61" as="geometry" />
        </mxCell>
        <mxCell id="eINXOdEoiIzQeCJLC4Ov-191" value="MapPedPair" style="swimlane;whiteSpace=wrap;html=1;strokeColor=#6666FF;" vertex="1" parent="1">
          <mxGeometry x="1627.5" y="6150" width="200" height="90" as="geometry" />
        </mxCell>
        <mxCell id="eINXOdEoiIzQeCJLC4Ov-461" value="作用：对cyclist和ped进行合并，用ped_pair的格式存储在ped_pairs中" style="text;html=1;strokeColor=none;fillColor=none;align=left;verticalAlign=middle;whiteSpace=wrap;rounded=0;" vertex="1" parent="eINXOdEoiIzQeCJLC4Ov-191">
          <mxGeometry x="5.320000000000164" y="30" width="190" height="50" as="geometry" />
        </mxCell>
        <mxCell id="eINXOdEoiIzQeCJLC4Ov-193" value="GetPedStatePre" style="swimlane;whiteSpace=wrap;html=1;strokeColor=#6666FF;" vertex="1" parent="1">
          <mxGeometry x="1627.5" y="6290" width="200" height="140" as="geometry" />
        </mxCell>
        <mxCell id="eINXOdEoiIzQeCJLC4Ov-194" value="作用：更新内参测距与外参测距结果" style="text;html=1;strokeColor=none;fillColor=none;align=left;verticalAlign=middle;whiteSpace=wrap;rounded=0;" vertex="1" parent="eINXOdEoiIzQeCJLC4Ov-193">
          <mxGeometry x="7.5" y="30" width="190" height="50" as="geometry" />
        </mxCell>
        <mxCell id="eINXOdEoiIzQeCJLC4Ov-195" value="FiterPedPair" style="swimlane;whiteSpace=wrap;html=1;strokeColor=#6666FF;" vertex="1" parent="1">
          <mxGeometry x="1630" y="6740" width="200" height="140" as="geometry" />
        </mxCell>
        <mxCell id="eINXOdEoiIzQeCJLC4Ov-196" value="作用：判断感知框是否处于边缘状态做删除操作，同时对ped_pairs进行按距离排序，并只保留max_cnt个元素。" style="text;html=1;strokeColor=none;fillColor=none;align=left;verticalAlign=middle;whiteSpace=wrap;rounded=0;" vertex="1" parent="eINXOdEoiIzQeCJLC4Ov-195">
          <mxGeometry x="7.5" y="30" width="190" height="50" as="geometry" />
        </mxCell>
        <mxCell id="eINXOdEoiIzQeCJLC4Ov-197" value="PedObjectTrackPre" style="swimlane;whiteSpace=wrap;html=1;strokeColor=#6666FF;" vertex="1" parent="1">
          <mxGeometry x="1630" y="6990" width="200" height="140" as="geometry" />
        </mxCell>
        <mxCell id="eINXOdEoiIzQeCJLC4Ov-198" value="作用：预跟踪" style="text;html=1;strokeColor=none;fillColor=none;align=left;verticalAlign=middle;whiteSpace=wrap;rounded=0;" vertex="1" parent="eINXOdEoiIzQeCJLC4Ov-197">
          <mxGeometry x="7.5" y="30" width="190" height="50" as="geometry" />
        </mxCell>
        <mxCell id="eINXOdEoiIzQeCJLC4Ov-199" value="GetMergedPair" style="swimlane;whiteSpace=wrap;html=1;strokeColor=#FF66B3;" vertex="1" parent="1">
          <mxGeometry x="1880" y="6290" width="200" height="70" as="geometry" />
        </mxCell>
        <mxCell id="eINXOdEoiIzQeCJLC4Ov-200" value="作用：返回merged_pair_" style="text;html=1;strokeColor=none;fillColor=none;align=left;verticalAlign=middle;whiteSpace=wrap;rounded=0;" vertex="1" parent="eINXOdEoiIzQeCJLC4Ov-199">
          <mxGeometry x="5" y="30" width="190" height="30" as="geometry" />
        </mxCell>
        <mxCell id="eINXOdEoiIzQeCJLC4Ov-206" value="call" style="endArrow=open;endSize=12;dashed=1;html=1;rounded=0;" edge="1" parent="1">
          <mxGeometry width="160" relative="1" as="geometry">
            <mxPoint x="1834" y="6310" as="sourcePoint" />
            <mxPoint x="1880" y="6310.42" as="targetPoint" />
          </mxGeometry>
        </mxCell>
        <mxCell id="eINXOdEoiIzQeCJLC4Ov-207" value="GetOriginPerceptionList" style="swimlane;whiteSpace=wrap;html=1;strokeColor=#FF66B3;" vertex="1" parent="1">
          <mxGeometry x="1880" y="6400" width="200" height="70" as="geometry" />
        </mxCell>
        <mxCell id="eINXOdEoiIzQeCJLC4Ov-464" value="作用：返回origin_perception_list_" style="text;html=1;strokeColor=none;fillColor=none;align=left;verticalAlign=middle;whiteSpace=wrap;rounded=0;" vertex="1" parent="eINXOdEoiIzQeCJLC4Ov-207">
          <mxGeometry x="5" y="22.5" width="190" height="47.5" as="geometry" />
        </mxCell>
        <mxCell id="eINXOdEoiIzQeCJLC4Ov-210" value="GetTricyclistsStatePre" style="swimlane;whiteSpace=wrap;html=1;strokeColor=#FF66B3;" vertex="1" parent="1">
          <mxGeometry x="1880" y="6510" width="200" height="90" as="geometry" />
        </mxCell>
        <mxCell id="eINXOdEoiIzQeCJLC4Ov-211" value="作用：将special_motor和general_motor的矩形框存储在ped_on_moto_rects-&amp;gt;veh_rects中" style="text;html=1;strokeColor=none;fillColor=none;align=left;verticalAlign=middle;whiteSpace=wrap;rounded=0;" vertex="1" parent="eINXOdEoiIzQeCJLC4Ov-210">
          <mxGeometry x="5" y="30" width="190" height="50" as="geometry" />
        </mxCell>
        <mxCell id="eINXOdEoiIzQeCJLC4Ov-213" value="GetRefHbyNearCar" style="swimlane;whiteSpace=wrap;html=1;strokeColor=#FF66B3;" vertex="1" parent="1">
          <mxGeometry x="1880" y="6640" width="200" height="80" as="geometry" />
        </mxCell>
        <mxCell id="eINXOdEoiIzQeCJLC4Ov-214" value="作用：利用1.5m车辆的高度去估计行人高度" style="text;html=1;strokeColor=none;fillColor=none;align=left;verticalAlign=middle;whiteSpace=wrap;rounded=0;" vertex="1" parent="eINXOdEoiIzQeCJLC4Ov-213">
          <mxGeometry x="5" y="30" width="190" height="40" as="geometry" />
        </mxCell>
        <mxCell id="eINXOdEoiIzQeCJLC4Ov-216" value="SegmentByLateralDistance" style="swimlane;whiteSpace=wrap;html=1;strokeColor=#FF66B3;" vertex="1" parent="1">
          <mxGeometry x="1880" y="6740" width="200" height="100" as="geometry" />
        </mxCell>
        <mxCell id="eINXOdEoiIzQeCJLC4Ov-217" value="作用：将目标距离自车x方向小于70y方向小于5的移动到pair_vec的开始处" style="text;html=1;strokeColor=none;fillColor=none;align=left;verticalAlign=middle;whiteSpace=wrap;rounded=0;" vertex="1" parent="eINXOdEoiIzQeCJLC4Ov-216">
          <mxGeometry x="5" y="30" width="190" height="70" as="geometry" />
        </mxCell>
        <mxCell id="eINXOdEoiIzQeCJLC4Ov-219" value="call" style="endArrow=open;endSize=12;dashed=1;html=1;rounded=0;" edge="1" parent="1">
          <mxGeometry width="160" relative="1" as="geometry">
            <mxPoint x="1830" y="6790" as="sourcePoint" />
            <mxPoint x="1876" y="6790.42" as="targetPoint" />
          </mxGeometry>
        </mxCell>
        <mxCell id="eINXOdEoiIzQeCJLC4Ov-220" value="TrackAndUpdateObjectsPre" style="swimlane;whiteSpace=wrap;html=1;strokeColor=#FF66B3;" vertex="1" parent="1">
          <mxGeometry x="1880" y="6990" width="200" height="120" as="geometry" />
        </mxCell>
        <mxCell id="eINXOdEoiIzQeCJLC4Ov-221" value="作用：利用目标预测框和检测框的iou进行预跟踪" style="text;html=1;strokeColor=none;fillColor=none;align=left;verticalAlign=middle;whiteSpace=wrap;rounded=0;" vertex="1" parent="eINXOdEoiIzQeCJLC4Ov-220">
          <mxGeometry x="5" y="30" width="190" height="50" as="geometry" />
        </mxCell>
        <mxCell id="eINXOdEoiIzQeCJLC4Ov-223" value="call" style="endArrow=open;endSize=12;dashed=1;html=1;rounded=0;" edge="1" parent="1">
          <mxGeometry width="160" relative="1" as="geometry">
            <mxPoint x="1834" y="7030" as="sourcePoint" />
            <mxPoint x="1880" y="7030.42" as="targetPoint" />
          </mxGeometry>
        </mxCell>
        <mxCell id="eINXOdEoiIzQeCJLC4Ov-224" value="GetFullClassName" style="swimlane;whiteSpace=wrap;html=1;" vertex="1" parent="1">
          <mxGeometry x="3171" y="272.5" width="250" height="250" as="geometry" />
        </mxCell>
        <mxCell id="eINXOdEoiIzQeCJLC4Ov-225" value="作用：主要是为了获取需跟踪的行人目标&lt;br&gt;的系统参数值" style="text;html=1;align=left;verticalAlign=middle;resizable=0;points=[];autosize=1;strokeColor=none;fillColor=none;" vertex="1" parent="eINXOdEoiIzQeCJLC4Ov-224">
          <mxGeometry x="7.5" y="30" width="240" height="40" as="geometry" />
        </mxCell>
        <mxCell id="eINXOdEoiIzQeCJLC4Ov-226" value="各参数如下：" style="text;html=1;strokeColor=none;fillColor=none;align=center;verticalAlign=middle;whiteSpace=wrap;rounded=0;" vertex="1" parent="eINXOdEoiIzQeCJLC4Ov-224">
          <mxGeometry y="70" width="90" height="30" as="geometry" />
        </mxCell>
        <mxCell id="eINXOdEoiIzQeCJLC4Ov-227" value="min_valid_frames_:最少连续帧&lt;br&gt;min_valid_conf_:最小置信度&lt;br&gt;min_valid_acc_conf:&lt;br&gt;min_accept_con_without_cnn_:&lt;br&gt;min_accept_avg_conf_:&lt;br&gt;max_miss_det_:最大丢失帧数&lt;br&gt;use_cam_validate_:是否使用相机消失点去过滤非路面目标&lt;br&gt;use_lk_:&lt;br&gt;use_kf_:" style="text;html=1;strokeColor=none;fillColor=none;align=left;verticalAlign=middle;whiteSpace=wrap;rounded=0;" vertex="1" parent="eINXOdEoiIzQeCJLC4Ov-224">
          <mxGeometry x="26.25" y="90" width="202.5" height="150" as="geometry" />
        </mxCell>
        <mxCell id="eINXOdEoiIzQeCJLC4Ov-228" value="GetGlobalMessage" style="swimlane;whiteSpace=wrap;html=1;" vertex="1" parent="1">
          <mxGeometry x="3171" y="612.5" width="250" height="250" as="geometry" />
        </mxCell>
        <mxCell id="eINXOdEoiIzQeCJLC4Ov-229" value="作用：主要是为了获取需跟踪的行人目标&lt;br&gt;的系统参数值" style="text;html=1;align=left;verticalAlign=middle;resizable=0;points=[];autosize=1;strokeColor=none;fillColor=none;" vertex="1" parent="eINXOdEoiIzQeCJLC4Ov-228">
          <mxGeometry x="7.5" y="30" width="240" height="40" as="geometry" />
        </mxCell>
        <mxCell id="eINXOdEoiIzQeCJLC4Ov-230" value="各参数如下：" style="text;html=1;strokeColor=none;fillColor=none;align=center;verticalAlign=middle;whiteSpace=wrap;rounded=0;" vertex="1" parent="eINXOdEoiIzQeCJLC4Ov-228">
          <mxGeometry y="70" width="90" height="30" as="geometry" />
        </mxCell>
        <mxCell id="eINXOdEoiIzQeCJLC4Ov-231" value="min_valid_frames_:最少连续帧&lt;br&gt;min_valid_conf_:最小置信度&lt;br&gt;min_valid_acc_conf:&lt;br&gt;min_accept_con_without_cnn_:&lt;br&gt;min_accept_avg_conf_:&lt;br&gt;max_miss_det_:最大丢失帧数&lt;br&gt;use_cam_validate_:是否使用相机消失点去过滤非路面目标&lt;br&gt;use_lk_:&lt;br&gt;use_kf_:" style="text;html=1;strokeColor=none;fillColor=none;align=left;verticalAlign=middle;whiteSpace=wrap;rounded=0;" vertex="1" parent="eINXOdEoiIzQeCJLC4Ov-228">
          <mxGeometry x="26.25" y="90" width="202.5" height="150" as="geometry" />
        </mxCell>
        <mxCell id="eINXOdEoiIzQeCJLC4Ov-232" value="GetSetting" style="swimlane;whiteSpace=wrap;html=1;" vertex="1" parent="1">
          <mxGeometry x="3170" y="922.5" width="250" height="250" as="geometry" />
        </mxCell>
        <mxCell id="eINXOdEoiIzQeCJLC4Ov-233" value="作用：主要是为了获取需跟踪的行人目标&lt;br&gt;的系统参数值" style="text;html=1;align=left;verticalAlign=middle;resizable=0;points=[];autosize=1;strokeColor=none;fillColor=none;" vertex="1" parent="eINXOdEoiIzQeCJLC4Ov-232">
          <mxGeometry x="7.5" y="30" width="240" height="40" as="geometry" />
        </mxCell>
        <mxCell id="eINXOdEoiIzQeCJLC4Ov-234" value="各参数如下：" style="text;html=1;strokeColor=none;fillColor=none;align=center;verticalAlign=middle;whiteSpace=wrap;rounded=0;" vertex="1" parent="eINXOdEoiIzQeCJLC4Ov-232">
          <mxGeometry y="70" width="90" height="30" as="geometry" />
        </mxCell>
        <mxCell id="eINXOdEoiIzQeCJLC4Ov-235" value="min_valid_frames_:最少连续帧&lt;br&gt;min_valid_conf_:最小置信度&lt;br&gt;min_valid_acc_conf:&lt;br&gt;min_accept_con_without_cnn_:&lt;br&gt;min_accept_avg_conf_:&lt;br&gt;max_miss_det_:最大丢失帧数&lt;br&gt;use_cam_validate_:是否使用相机消失点去过滤非路面目标&lt;br&gt;use_lk_:&lt;br&gt;use_kf_:" style="text;html=1;strokeColor=none;fillColor=none;align=left;verticalAlign=middle;whiteSpace=wrap;rounded=0;" vertex="1" parent="eINXOdEoiIzQeCJLC4Ov-232">
          <mxGeometry x="26.25" y="90" width="202.5" height="150" as="geometry" />
        </mxCell>
        <mxCell id="eINXOdEoiIzQeCJLC4Ov-236" value="ParsingSceneMsg" style="swimlane;whiteSpace=wrap;html=1;" vertex="1" parent="1">
          <mxGeometry x="3171" y="1242.5" width="250" height="250" as="geometry" />
        </mxCell>
        <mxCell id="eINXOdEoiIzQeCJLC4Ov-237" value="作用：主要是为了获取需跟踪的行人目标&lt;br&gt;的系统参数值" style="text;html=1;align=left;verticalAlign=middle;resizable=0;points=[];autosize=1;strokeColor=none;fillColor=none;" vertex="1" parent="eINXOdEoiIzQeCJLC4Ov-236">
          <mxGeometry x="7.5" y="30" width="240" height="40" as="geometry" />
        </mxCell>
        <mxCell id="eINXOdEoiIzQeCJLC4Ov-238" value="各参数如下：" style="text;html=1;strokeColor=none;fillColor=none;align=center;verticalAlign=middle;whiteSpace=wrap;rounded=0;" vertex="1" parent="eINXOdEoiIzQeCJLC4Ov-236">
          <mxGeometry y="70" width="90" height="30" as="geometry" />
        </mxCell>
        <mxCell id="eINXOdEoiIzQeCJLC4Ov-239" value="min_valid_frames_:最少连续帧&lt;br&gt;min_valid_conf_:最小置信度&lt;br&gt;min_valid_acc_conf:&lt;br&gt;min_accept_con_without_cnn_:&lt;br&gt;min_accept_avg_conf_:&lt;br&gt;max_miss_det_:最大丢失帧数&lt;br&gt;use_cam_validate_:是否使用相机消失点去过滤非路面目标&lt;br&gt;use_lk_:&lt;br&gt;use_kf_:" style="text;html=1;strokeColor=none;fillColor=none;align=left;verticalAlign=middle;whiteSpace=wrap;rounded=0;" vertex="1" parent="eINXOdEoiIzQeCJLC4Ov-236">
          <mxGeometry x="26.25" y="90" width="202.5" height="150" as="geometry" />
        </mxCell>
        <mxCell id="eINXOdEoiIzQeCJLC4Ov-240" value="GetTrackingConfParamMsg" style="swimlane;whiteSpace=wrap;html=1;" vertex="1" parent="1">
          <mxGeometry x="3170" y="1552.5" width="250" height="250" as="geometry" />
        </mxCell>
        <mxCell id="eINXOdEoiIzQeCJLC4Ov-241" value="作用：主要是为了获取需跟踪的行人目标&lt;br&gt;的系统参数值" style="text;html=1;align=left;verticalAlign=middle;resizable=0;points=[];autosize=1;strokeColor=none;fillColor=none;" vertex="1" parent="eINXOdEoiIzQeCJLC4Ov-240">
          <mxGeometry x="7.5" y="30" width="240" height="40" as="geometry" />
        </mxCell>
        <mxCell id="eINXOdEoiIzQeCJLC4Ov-242" value="各参数如下：" style="text;html=1;strokeColor=none;fillColor=none;align=center;verticalAlign=middle;whiteSpace=wrap;rounded=0;" vertex="1" parent="eINXOdEoiIzQeCJLC4Ov-240">
          <mxGeometry y="70" width="90" height="30" as="geometry" />
        </mxCell>
        <mxCell id="eINXOdEoiIzQeCJLC4Ov-243" value="min_valid_frames_:最少连续帧&lt;br&gt;min_valid_conf_:最小置信度&lt;br&gt;min_valid_acc_conf:&lt;br&gt;min_accept_con_without_cnn_:&lt;br&gt;min_accept_avg_conf_:&lt;br&gt;max_miss_det_:最大丢失帧数&lt;br&gt;use_cam_validate_:是否使用相机消失点去过滤非路面目标&lt;br&gt;use_lk_:&lt;br&gt;use_kf_:" style="text;html=1;strokeColor=none;fillColor=none;align=left;verticalAlign=middle;whiteSpace=wrap;rounded=0;" vertex="1" parent="eINXOdEoiIzQeCJLC4Ov-240">
          <mxGeometry x="26.25" y="90" width="202.5" height="150" as="geometry" />
        </mxCell>
        <mxCell id="eINXOdEoiIzQeCJLC4Ov-244" value="TrackingPrepare" style="swimlane;whiteSpace=wrap;html=1;" vertex="1" parent="1">
          <mxGeometry x="3170" y="1872.5" width="250" height="250" as="geometry" />
        </mxCell>
        <mxCell id="eINXOdEoiIzQeCJLC4Ov-245" value="作用：主要是为了获取需跟踪的行人目标&lt;br&gt;的系统参数值" style="text;html=1;align=left;verticalAlign=middle;resizable=0;points=[];autosize=1;strokeColor=none;fillColor=none;" vertex="1" parent="eINXOdEoiIzQeCJLC4Ov-244">
          <mxGeometry x="7.5" y="30" width="240" height="40" as="geometry" />
        </mxCell>
        <mxCell id="eINXOdEoiIzQeCJLC4Ov-246" value="各参数如下：" style="text;html=1;strokeColor=none;fillColor=none;align=center;verticalAlign=middle;whiteSpace=wrap;rounded=0;" vertex="1" parent="eINXOdEoiIzQeCJLC4Ov-244">
          <mxGeometry y="70" width="90" height="30" as="geometry" />
        </mxCell>
        <mxCell id="eINXOdEoiIzQeCJLC4Ov-247" value="min_valid_frames_:最少连续帧&lt;br&gt;min_valid_conf_:最小置信度&lt;br&gt;min_valid_acc_conf:&lt;br&gt;min_accept_con_without_cnn_:&lt;br&gt;min_accept_avg_conf_:&lt;br&gt;max_miss_det_:最大丢失帧数&lt;br&gt;use_cam_validate_:是否使用相机消失点去过滤非路面目标&lt;br&gt;use_lk_:&lt;br&gt;use_kf_:" style="text;html=1;strokeColor=none;fillColor=none;align=left;verticalAlign=middle;whiteSpace=wrap;rounded=0;" vertex="1" parent="eINXOdEoiIzQeCJLC4Ov-244">
          <mxGeometry x="26.25" y="90" width="202.5" height="150" as="geometry" />
        </mxCell>
        <mxCell id="eINXOdEoiIzQeCJLC4Ov-248" value="Tracking" style="swimlane;whiteSpace=wrap;html=1;" vertex="1" parent="1">
          <mxGeometry x="3170" y="2172.5" width="250" height="250" as="geometry" />
        </mxCell>
        <mxCell id="eINXOdEoiIzQeCJLC4Ov-249" value="作用：主要是为了获取需跟踪的行人目标&lt;br&gt;的系统参数值" style="text;html=1;align=left;verticalAlign=middle;resizable=0;points=[];autosize=1;strokeColor=none;fillColor=none;" vertex="1" parent="eINXOdEoiIzQeCJLC4Ov-248">
          <mxGeometry x="7.5" y="30" width="240" height="40" as="geometry" />
        </mxCell>
        <mxCell id="eINXOdEoiIzQeCJLC4Ov-250" value="各参数如下：" style="text;html=1;strokeColor=none;fillColor=none;align=center;verticalAlign=middle;whiteSpace=wrap;rounded=0;" vertex="1" parent="eINXOdEoiIzQeCJLC4Ov-248">
          <mxGeometry y="70" width="90" height="30" as="geometry" />
        </mxCell>
        <mxCell id="eINXOdEoiIzQeCJLC4Ov-251" value="min_valid_frames_:最少连续帧&lt;br&gt;min_valid_conf_:最小置信度&lt;br&gt;min_valid_acc_conf:&lt;br&gt;min_accept_con_without_cnn_:&lt;br&gt;min_accept_avg_conf_:&lt;br&gt;max_miss_det_:最大丢失帧数&lt;br&gt;use_cam_validate_:是否使用相机消失点去过滤非路面目标&lt;br&gt;use_lk_:&lt;br&gt;use_kf_:" style="text;html=1;strokeColor=none;fillColor=none;align=left;verticalAlign=middle;whiteSpace=wrap;rounded=0;" vertex="1" parent="eINXOdEoiIzQeCJLC4Ov-248">
          <mxGeometry x="26.25" y="90" width="202.5" height="150" as="geometry" />
        </mxCell>
        <mxCell id="eINXOdEoiIzQeCJLC4Ov-252" value="estimate" style="swimlane;whiteSpace=wrap;html=1;" vertex="1" parent="1">
          <mxGeometry x="3170" y="2502.5" width="250" height="250" as="geometry" />
        </mxCell>
        <mxCell id="eINXOdEoiIzQeCJLC4Ov-253" value="作用：主要是为了获取需跟踪的行人目标&lt;br&gt;的系统参数值" style="text;html=1;align=left;verticalAlign=middle;resizable=0;points=[];autosize=1;strokeColor=none;fillColor=none;" vertex="1" parent="eINXOdEoiIzQeCJLC4Ov-252">
          <mxGeometry x="7.5" y="30" width="240" height="40" as="geometry" />
        </mxCell>
        <mxCell id="eINXOdEoiIzQeCJLC4Ov-254" value="各参数如下：" style="text;html=1;strokeColor=none;fillColor=none;align=center;verticalAlign=middle;whiteSpace=wrap;rounded=0;" vertex="1" parent="eINXOdEoiIzQeCJLC4Ov-252">
          <mxGeometry y="70" width="90" height="30" as="geometry" />
        </mxCell>
        <mxCell id="eINXOdEoiIzQeCJLC4Ov-255" value="min_valid_frames_:最少连续帧&lt;br&gt;min_valid_conf_:最小置信度&lt;br&gt;min_valid_acc_conf:&lt;br&gt;min_accept_con_without_cnn_:&lt;br&gt;min_accept_avg_conf_:&lt;br&gt;max_miss_det_:最大丢失帧数&lt;br&gt;use_cam_validate_:是否使用相机消失点去过滤非路面目标&lt;br&gt;use_lk_:&lt;br&gt;use_kf_:" style="text;html=1;strokeColor=none;fillColor=none;align=left;verticalAlign=middle;whiteSpace=wrap;rounded=0;" vertex="1" parent="eINXOdEoiIzQeCJLC4Ov-252">
          <mxGeometry x="26.25" y="90" width="202.5" height="150" as="geometry" />
        </mxCell>
        <mxCell id="eINXOdEoiIzQeCJLC4Ov-256" value="OutputPrepare" style="swimlane;whiteSpace=wrap;html=1;" vertex="1" parent="1">
          <mxGeometry x="3171" y="2822.5" width="250" height="250" as="geometry" />
        </mxCell>
        <mxCell id="eINXOdEoiIzQeCJLC4Ov-257" value="作用：主要是为了获取需跟踪的行人目标&lt;br&gt;的系统参数值" style="text;html=1;align=left;verticalAlign=middle;resizable=0;points=[];autosize=1;strokeColor=none;fillColor=none;" vertex="1" parent="eINXOdEoiIzQeCJLC4Ov-256">
          <mxGeometry x="7.5" y="30" width="240" height="40" as="geometry" />
        </mxCell>
        <mxCell id="eINXOdEoiIzQeCJLC4Ov-258" value="各参数如下：" style="text;html=1;strokeColor=none;fillColor=none;align=center;verticalAlign=middle;whiteSpace=wrap;rounded=0;" vertex="1" parent="eINXOdEoiIzQeCJLC4Ov-256">
          <mxGeometry y="70" width="90" height="30" as="geometry" />
        </mxCell>
        <mxCell id="eINXOdEoiIzQeCJLC4Ov-259" value="min_valid_frames_:最少连续帧&lt;br&gt;min_valid_conf_:最小置信度&lt;br&gt;min_valid_acc_conf:&lt;br&gt;min_accept_con_without_cnn_:&lt;br&gt;min_accept_avg_conf_:&lt;br&gt;max_miss_det_:最大丢失帧数&lt;br&gt;use_cam_validate_:是否使用相机消失点去过滤非路面目标&lt;br&gt;use_lk_:&lt;br&gt;use_kf_:" style="text;html=1;strokeColor=none;fillColor=none;align=left;verticalAlign=middle;whiteSpace=wrap;rounded=0;" vertex="1" parent="eINXOdEoiIzQeCJLC4Ov-256">
          <mxGeometry x="26.25" y="90" width="202.5" height="150" as="geometry" />
        </mxCell>
        <mxCell id="eINXOdEoiIzQeCJLC4Ov-260" value="Output" style="swimlane;whiteSpace=wrap;html=1;startSize=23;" vertex="1" parent="1">
          <mxGeometry x="3181" y="3142.5" width="250" height="250" as="geometry" />
        </mxCell>
        <mxCell id="eINXOdEoiIzQeCJLC4Ov-261" value="作用：主要是为了获取需跟踪的行人目标&lt;br&gt;的系统参数值" style="text;html=1;align=left;verticalAlign=middle;resizable=0;points=[];autosize=1;strokeColor=none;fillColor=none;" vertex="1" parent="eINXOdEoiIzQeCJLC4Ov-260">
          <mxGeometry x="7.5" y="30" width="240" height="40" as="geometry" />
        </mxCell>
        <mxCell id="eINXOdEoiIzQeCJLC4Ov-262" value="各参数如下：" style="text;html=1;strokeColor=none;fillColor=none;align=center;verticalAlign=middle;whiteSpace=wrap;rounded=0;" vertex="1" parent="eINXOdEoiIzQeCJLC4Ov-260">
          <mxGeometry y="70" width="90" height="30" as="geometry" />
        </mxCell>
        <mxCell id="eINXOdEoiIzQeCJLC4Ov-263" value="min_valid_frames_:最少连续帧&lt;br&gt;min_valid_conf_:最小置信度&lt;br&gt;min_valid_acc_conf:&lt;br&gt;min_accept_con_without_cnn_:&lt;br&gt;min_accept_avg_conf_:&lt;br&gt;max_miss_det_:最大丢失帧数&lt;br&gt;use_cam_validate_:是否使用相机消失点去过滤非路面目标&lt;br&gt;use_lk_:&lt;br&gt;use_kf_:" style="text;html=1;strokeColor=none;fillColor=none;align=left;verticalAlign=middle;whiteSpace=wrap;rounded=0;" vertex="1" parent="eINXOdEoiIzQeCJLC4Ov-260">
          <mxGeometry x="26.25" y="90" width="202.5" height="150" as="geometry" />
        </mxCell>
        <mxCell id="eINXOdEoiIzQeCJLC4Ov-264" value="EndProcess" style="swimlane;whiteSpace=wrap;html=1;startSize=23;" vertex="1" parent="1">
          <mxGeometry x="3181" y="3452.5" width="250" height="250" as="geometry" />
        </mxCell>
        <mxCell id="eINXOdEoiIzQeCJLC4Ov-265" value="作用：主要是为了获取需跟踪的行人目标&lt;br&gt;的系统参数值" style="text;html=1;align=left;verticalAlign=middle;resizable=0;points=[];autosize=1;strokeColor=none;fillColor=none;" vertex="1" parent="eINXOdEoiIzQeCJLC4Ov-264">
          <mxGeometry x="7.5" y="30" width="240" height="40" as="geometry" />
        </mxCell>
        <mxCell id="eINXOdEoiIzQeCJLC4Ov-266" value="各参数如下：" style="text;html=1;strokeColor=none;fillColor=none;align=center;verticalAlign=middle;whiteSpace=wrap;rounded=0;" vertex="1" parent="eINXOdEoiIzQeCJLC4Ov-264">
          <mxGeometry y="70" width="90" height="30" as="geometry" />
        </mxCell>
        <mxCell id="eINXOdEoiIzQeCJLC4Ov-267" value="min_valid_frames_:最少连续帧&lt;br&gt;min_valid_conf_:最小置信度&lt;br&gt;min_valid_acc_conf:&lt;br&gt;min_accept_con_without_cnn_:&lt;br&gt;min_accept_avg_conf_:&lt;br&gt;max_miss_det_:最大丢失帧数&lt;br&gt;use_cam_validate_:是否使用相机消失点去过滤非路面目标&lt;br&gt;use_lk_:&lt;br&gt;use_kf_:" style="text;html=1;strokeColor=none;fillColor=none;align=left;verticalAlign=middle;whiteSpace=wrap;rounded=0;" vertex="1" parent="eINXOdEoiIzQeCJLC4Ov-264">
          <mxGeometry x="26.25" y="90" width="202.5" height="150" as="geometry" />
        </mxCell>
        <mxCell id="eINXOdEoiIzQeCJLC4Ov-268" value="GetPedestriansNum" style="swimlane;whiteSpace=wrap;html=1;startSize=23;" vertex="1" parent="1">
          <mxGeometry x="3181" y="3762.5" width="250" height="250" as="geometry" />
        </mxCell>
        <mxCell id="eINXOdEoiIzQeCJLC4Ov-269" value="作用：主要是为了获取需跟踪的行人目标&lt;br&gt;的系统参数值" style="text;html=1;align=left;verticalAlign=middle;resizable=0;points=[];autosize=1;strokeColor=none;fillColor=none;" vertex="1" parent="eINXOdEoiIzQeCJLC4Ov-268">
          <mxGeometry x="7.5" y="30" width="240" height="40" as="geometry" />
        </mxCell>
        <mxCell id="eINXOdEoiIzQeCJLC4Ov-270" value="各参数如下：" style="text;html=1;strokeColor=none;fillColor=none;align=center;verticalAlign=middle;whiteSpace=wrap;rounded=0;" vertex="1" parent="eINXOdEoiIzQeCJLC4Ov-268">
          <mxGeometry y="70" width="90" height="30" as="geometry" />
        </mxCell>
        <mxCell id="eINXOdEoiIzQeCJLC4Ov-271" value="min_valid_frames_:最少连续帧&lt;br&gt;min_valid_conf_:最小置信度&lt;br&gt;min_valid_acc_conf:&lt;br&gt;min_accept_con_without_cnn_:&lt;br&gt;min_accept_avg_conf_:&lt;br&gt;max_miss_det_:最大丢失帧数&lt;br&gt;use_cam_validate_:是否使用相机消失点去过滤非路面目标&lt;br&gt;use_lk_:&lt;br&gt;use_kf_:" style="text;html=1;strokeColor=none;fillColor=none;align=left;verticalAlign=middle;whiteSpace=wrap;rounded=0;" vertex="1" parent="eINXOdEoiIzQeCJLC4Ov-268">
          <mxGeometry x="26.25" y="90" width="202.5" height="150" as="geometry" />
        </mxCell>
        <mxCell id="eINXOdEoiIzQeCJLC4Ov-272" value="UpdatelastImgMsg" style="swimlane;whiteSpace=wrap;html=1;startSize=23;" vertex="1" parent="1">
          <mxGeometry x="3181" y="4092.5" width="250" height="250" as="geometry" />
        </mxCell>
        <mxCell id="eINXOdEoiIzQeCJLC4Ov-273" value="作用：主要是为了获取需跟踪的行人目标&lt;br&gt;的系统参数值" style="text;html=1;align=left;verticalAlign=middle;resizable=0;points=[];autosize=1;strokeColor=none;fillColor=none;" vertex="1" parent="eINXOdEoiIzQeCJLC4Ov-272">
          <mxGeometry x="7.5" y="30" width="240" height="40" as="geometry" />
        </mxCell>
        <mxCell id="eINXOdEoiIzQeCJLC4Ov-274" value="各参数如下：" style="text;html=1;strokeColor=none;fillColor=none;align=center;verticalAlign=middle;whiteSpace=wrap;rounded=0;" vertex="1" parent="eINXOdEoiIzQeCJLC4Ov-272">
          <mxGeometry y="70" width="90" height="30" as="geometry" />
        </mxCell>
        <mxCell id="eINXOdEoiIzQeCJLC4Ov-275" value="min_valid_frames_:最少连续帧&lt;br&gt;min_valid_conf_:最小置信度&lt;br&gt;min_valid_acc_conf:&lt;br&gt;min_accept_con_without_cnn_:&lt;br&gt;min_accept_avg_conf_:&lt;br&gt;max_miss_det_:最大丢失帧数&lt;br&gt;use_cam_validate_:是否使用相机消失点去过滤非路面目标&lt;br&gt;use_lk_:&lt;br&gt;use_kf_:" style="text;html=1;strokeColor=none;fillColor=none;align=left;verticalAlign=middle;whiteSpace=wrap;rounded=0;" vertex="1" parent="eINXOdEoiIzQeCJLC4Ov-272">
          <mxGeometry x="26.25" y="90" width="202.5" height="150" as="geometry" />
        </mxCell>
        <mxCell id="eINXOdEoiIzQeCJLC4Ov-276" value="SetDoneTimestamp" style="swimlane;whiteSpace=wrap;html=1;startSize=23;" vertex="1" parent="1">
          <mxGeometry x="3181" y="4422.5" width="250" height="250" as="geometry" />
        </mxCell>
        <mxCell id="eINXOdEoiIzQeCJLC4Ov-277" value="作用：主要是为了获取需跟踪的行人目标&lt;br&gt;的系统参数值" style="text;html=1;align=left;verticalAlign=middle;resizable=0;points=[];autosize=1;strokeColor=none;fillColor=none;" vertex="1" parent="eINXOdEoiIzQeCJLC4Ov-276">
          <mxGeometry x="7.5" y="30" width="240" height="40" as="geometry" />
        </mxCell>
        <mxCell id="eINXOdEoiIzQeCJLC4Ov-278" value="各参数如下：" style="text;html=1;strokeColor=none;fillColor=none;align=center;verticalAlign=middle;whiteSpace=wrap;rounded=0;" vertex="1" parent="eINXOdEoiIzQeCJLC4Ov-276">
          <mxGeometry y="70" width="90" height="30" as="geometry" />
        </mxCell>
        <mxCell id="eINXOdEoiIzQeCJLC4Ov-279" value="min_valid_frames_:最少连续帧&lt;br&gt;min_valid_conf_:最小置信度&lt;br&gt;min_valid_acc_conf:&lt;br&gt;min_accept_con_without_cnn_:&lt;br&gt;min_accept_avg_conf_:&lt;br&gt;max_miss_det_:最大丢失帧数&lt;br&gt;use_cam_validate_:是否使用相机消失点去过滤非路面目标&lt;br&gt;use_lk_:&lt;br&gt;use_kf_:" style="text;html=1;strokeColor=none;fillColor=none;align=left;verticalAlign=middle;whiteSpace=wrap;rounded=0;" vertex="1" parent="eINXOdEoiIzQeCJLC4Ov-276">
          <mxGeometry x="26.25" y="90" width="202.5" height="150" as="geometry" />
        </mxCell>
        <mxCell id="eINXOdEoiIzQeCJLC4Ov-280" value="AddModuleInfo" style="swimlane;whiteSpace=wrap;html=1;startSize=23;" vertex="1" parent="1">
          <mxGeometry x="3181" y="4752.5" width="250" height="250" as="geometry" />
        </mxCell>
        <mxCell id="eINXOdEoiIzQeCJLC4Ov-281" value="作用：主要是为了获取需跟踪的行人目标&lt;br&gt;的系统参数值" style="text;html=1;align=left;verticalAlign=middle;resizable=0;points=[];autosize=1;strokeColor=none;fillColor=none;" vertex="1" parent="eINXOdEoiIzQeCJLC4Ov-280">
          <mxGeometry x="7.5" y="30" width="240" height="40" as="geometry" />
        </mxCell>
        <mxCell id="eINXOdEoiIzQeCJLC4Ov-282" value="各参数如下：" style="text;html=1;strokeColor=none;fillColor=none;align=center;verticalAlign=middle;whiteSpace=wrap;rounded=0;" vertex="1" parent="eINXOdEoiIzQeCJLC4Ov-280">
          <mxGeometry y="70" width="90" height="30" as="geometry" />
        </mxCell>
        <mxCell id="eINXOdEoiIzQeCJLC4Ov-283" value="min_valid_frames_:最少连续帧&lt;br&gt;min_valid_conf_:最小置信度&lt;br&gt;min_valid_acc_conf:&lt;br&gt;min_accept_con_without_cnn_:&lt;br&gt;min_accept_avg_conf_:&lt;br&gt;max_miss_det_:最大丢失帧数&lt;br&gt;use_cam_validate_:是否使用相机消失点去过滤非路面目标&lt;br&gt;use_lk_:&lt;br&gt;use_kf_:" style="text;html=1;strokeColor=none;fillColor=none;align=left;verticalAlign=middle;whiteSpace=wrap;rounded=0;" vertex="1" parent="eINXOdEoiIzQeCJLC4Ov-280">
          <mxGeometry x="26.25" y="90" width="202.5" height="150" as="geometry" />
        </mxCell>
        <mxCell id="eINXOdEoiIzQeCJLC4Ov-284" value="" style="shape=curlyBracket;whiteSpace=wrap;html=1;rounded=1;flipH=1;labelPosition=right;verticalLabelPosition=middle;align=left;verticalAlign=middle;" vertex="1" parent="1">
          <mxGeometry x="1330" y="7.5" width="20" height="75" as="geometry" />
        </mxCell>
        <mxCell id="eINXOdEoiIzQeCJLC4Ov-285" value="hobot :: Module *parent&lt;br&gt;hobot:: MessageLists &amp;amp;input&lt;br&gt;hobot::Workflow *workflow&lt;br&gt;hobot:: spRunContext context" style="text;html=1;strokeColor=none;fillColor=none;align=left;verticalAlign=middle;whiteSpace=wrap;rounded=0;" vertex="1" parent="1">
          <mxGeometry x="1156" y="10" width="170" height="70" as="geometry" />
        </mxCell>
        <mxCell id="eINXOdEoiIzQeCJLC4Ov-286" value="" style="endArrow=classic;html=1;rounded=0;entryX=0.5;entryY=0;entryDx=0;entryDy=0;" edge="1" parent="1" target="eINXOdEoiIzQeCJLC4Ov-94">
          <mxGeometry width="50" height="50" relative="1" as="geometry">
            <mxPoint x="1435" y="140" as="sourcePoint" />
            <mxPoint x="1150" y="270" as="targetPoint" />
          </mxGeometry>
        </mxCell>
        <mxCell id="eINXOdEoiIzQeCJLC4Ov-287" value="" style="endArrow=classic;html=1;rounded=0;exitX=0.5;exitY=1;exitDx=0;exitDy=0;entryX=0.5;entryY=0;entryDx=0;entryDy=0;" edge="1" parent="1" source="eINXOdEoiIzQeCJLC4Ov-94" target="eINXOdEoiIzQeCJLC4Ov-98">
          <mxGeometry width="50" height="50" relative="1" as="geometry">
            <mxPoint x="1740" y="670" as="sourcePoint" />
            <mxPoint x="1790" y="620" as="targetPoint" />
          </mxGeometry>
        </mxCell>
        <mxCell id="eINXOdEoiIzQeCJLC4Ov-288" value="" style="endArrow=classic;html=1;rounded=0;exitX=0.5;exitY=1;exitDx=0;exitDy=0;entryX=0.5;entryY=0;entryDx=0;entryDy=0;" edge="1" parent="1" source="eINXOdEoiIzQeCJLC4Ov-98" target="eINXOdEoiIzQeCJLC4Ov-102">
          <mxGeometry width="50" height="50" relative="1" as="geometry">
            <mxPoint x="1740" y="890" as="sourcePoint" />
            <mxPoint x="1790" y="840" as="targetPoint" />
          </mxGeometry>
        </mxCell>
        <mxCell id="eINXOdEoiIzQeCJLC4Ov-289" value="&lt;h1&gt;Definition&lt;/h1&gt;&lt;p&gt;bpu_custom_input_module_test.cpp&lt;/p&gt;" style="text;html=1;strokeColor=none;fillColor=none;spacing=5;spacingTop=-20;whiteSpace=wrap;overflow=hidden;rounded=0;" vertex="1" parent="1">
          <mxGeometry x="-810" y="15" width="220" height="85" as="geometry" />
        </mxCell>
        <mxCell id="eINXOdEoiIzQeCJLC4Ov-296" value="" style="endArrow=classic;html=1;rounded=0;exitX=0.5;exitY=1;exitDx=0;exitDy=0;entryX=0.5;entryY=0;entryDx=0;entryDy=0;" edge="1" parent="1" source="eINXOdEoiIzQeCJLC4Ov-102" target="eINXOdEoiIzQeCJLC4Ov-106">
          <mxGeometry width="50" height="50" relative="1" as="geometry">
            <mxPoint x="1740" y="1100" as="sourcePoint" />
            <mxPoint x="1790" y="1050" as="targetPoint" />
          </mxGeometry>
        </mxCell>
        <mxCell id="eINXOdEoiIzQeCJLC4Ov-302" value="" style="endArrow=classic;html=1;rounded=0;exitX=0.5;exitY=1;exitDx=0;exitDy=0;entryX=0.5;entryY=0;entryDx=0;entryDy=0;" edge="1" parent="1" source="eINXOdEoiIzQeCJLC4Ov-109" target="eINXOdEoiIzQeCJLC4Ov-110">
          <mxGeometry width="50" height="50" relative="1" as="geometry">
            <mxPoint x="1740" y="1590" as="sourcePoint" />
            <mxPoint x="1790" y="1540" as="targetPoint" />
          </mxGeometry>
        </mxCell>
        <mxCell id="eINXOdEoiIzQeCJLC4Ov-303" value="获取input[SLOT_IN_IMG_FW0][cam_0]的image信息" style="rounded=0;whiteSpace=wrap;html=1;" vertex="1" parent="1">
          <mxGeometry x="1286.1" y="1740" width="300" height="60" as="geometry" />
        </mxCell>
        <mxCell id="eINXOdEoiIzQeCJLC4Ov-304" value="" style="endArrow=classic;html=1;rounded=0;exitX=0.5;exitY=1;exitDx=0;exitDy=0;entryX=0.5;entryY=0;entryDx=0;entryDy=0;" edge="1" parent="1" source="eINXOdEoiIzQeCJLC4Ov-113" target="eINXOdEoiIzQeCJLC4Ov-303">
          <mxGeometry width="50" height="50" relative="1" as="geometry">
            <mxPoint x="1770" y="1500" as="sourcePoint" />
            <mxPoint x="1820" y="1450" as="targetPoint" />
          </mxGeometry>
        </mxCell>
        <mxCell id="eINXOdEoiIzQeCJLC4Ov-305" value="" style="endArrow=classic;html=1;rounded=0;exitX=0.5;exitY=1;exitDx=0;exitDy=0;entryX=0.5;entryY=0;entryDx=0;entryDy=0;" edge="1" parent="1" source="eINXOdEoiIzQeCJLC4Ov-303" target="eINXOdEoiIzQeCJLC4Ov-114">
          <mxGeometry width="50" height="50" relative="1" as="geometry">
            <mxPoint x="1770" y="1670" as="sourcePoint" />
            <mxPoint x="1820" y="1620" as="targetPoint" />
          </mxGeometry>
        </mxCell>
        <mxCell id="eINXOdEoiIzQeCJLC4Ov-306" value="获取input[SLOT_IN_REAL3DRAW_FW0][cam_0]的信息" style="rounded=0;whiteSpace=wrap;html=1;" vertex="1" parent="1">
          <mxGeometry x="1268.6" y="2000" width="335" height="60" as="geometry" />
        </mxCell>
        <mxCell id="eINXOdEoiIzQeCJLC4Ov-307" value="" style="endArrow=classic;html=1;rounded=0;exitX=0.5;exitY=1;exitDx=0;exitDy=0;entryX=0.5;entryY=0;entryDx=0;entryDy=0;" edge="1" parent="1" source="eINXOdEoiIzQeCJLC4Ov-114" target="eINXOdEoiIzQeCJLC4Ov-306">
          <mxGeometry width="50" height="50" relative="1" as="geometry">
            <mxPoint x="2070" y="1850" as="sourcePoint" />
            <mxPoint x="2120" y="1800" as="targetPoint" />
          </mxGeometry>
        </mxCell>
        <mxCell id="eINXOdEoiIzQeCJLC4Ov-308" value="" style="endArrow=classic;html=1;rounded=0;exitX=0.5;exitY=1;exitDx=0;exitDy=0;entryX=0.5;entryY=0;entryDx=0;entryDy=0;" edge="1" parent="1" source="eINXOdEoiIzQeCJLC4Ov-306" target="eINXOdEoiIzQeCJLC4Ov-118">
          <mxGeometry width="50" height="50" relative="1" as="geometry">
            <mxPoint x="1680" y="2060" as="sourcePoint" />
            <mxPoint x="1730" y="2010" as="targetPoint" />
          </mxGeometry>
        </mxCell>
        <mxCell id="eINXOdEoiIzQeCJLC4Ov-309" value="UpdateDiagnoseStatus" style="swimlane;whiteSpace=wrap;html=1;strokeColor=#6666FF;" vertex="1" parent="1">
          <mxGeometry x="1680" y="2140" width="200" height="130" as="geometry" />
        </mxCell>
        <mxCell id="eINXOdEoiIzQeCJLC4Ov-310" value="作用：状态值更新" style="text;html=1;strokeColor=none;fillColor=none;align=left;verticalAlign=middle;whiteSpace=wrap;rounded=0;" vertex="1" parent="eINXOdEoiIzQeCJLC4Ov-309">
          <mxGeometry x="5" y="30" width="190" height="20" as="geometry" />
        </mxCell>
        <mxCell id="eINXOdEoiIzQeCJLC4Ov-321" value="各参数如下：&lt;br&gt;status_:kDiagnosepass&lt;br&gt;pass_stable_times_=0&lt;br&gt;fail_stable_times_=0&lt;br&gt;retval=1" style="text;html=1;strokeColor=none;fillColor=none;align=left;verticalAlign=middle;whiteSpace=wrap;rounded=0;" vertex="1" parent="eINXOdEoiIzQeCJLC4Ov-309">
          <mxGeometry x="5" y="50" width="160" height="70" as="geometry" />
        </mxCell>
        <mxCell id="eINXOdEoiIzQeCJLC4Ov-311" value="SetModuleName" style="swimlane;whiteSpace=wrap;html=1;strokeColor=#6666FF;" vertex="1" parent="1">
          <mxGeometry x="1680" y="2300" width="200" height="60" as="geometry" />
        </mxCell>
        <mxCell id="eINXOdEoiIzQeCJLC4Ov-312" value="作用：设置模块名称" style="text;html=1;strokeColor=none;fillColor=none;align=left;verticalAlign=middle;whiteSpace=wrap;rounded=0;" vertex="1" parent="eINXOdEoiIzQeCJLC4Ov-311">
          <mxGeometry x="7.5" y="30" width="190" height="30" as="geometry" />
        </mxCell>
        <mxCell id="eINXOdEoiIzQeCJLC4Ov-313" value="GetFullClassName" style="swimlane;whiteSpace=wrap;html=1;strokeColor=#6666FF;" vertex="1" parent="1">
          <mxGeometry x="1680" y="2390" width="200" height="60" as="geometry" />
        </mxCell>
        <mxCell id="eINXOdEoiIzQeCJLC4Ov-314" value="作用：获取类名" style="text;html=1;strokeColor=none;fillColor=none;align=left;verticalAlign=middle;whiteSpace=wrap;rounded=0;" vertex="1" parent="eINXOdEoiIzQeCJLC4Ov-313">
          <mxGeometry x="7.5" y="30" width="190" height="20" as="geometry" />
        </mxCell>
        <mxCell id="eINXOdEoiIzQeCJLC4Ov-315" value="Init" style="swimlane;whiteSpace=wrap;html=1;strokeColor=#6666FF;" vertex="1" parent="1">
          <mxGeometry x="1680" y="2470" width="200" height="140" as="geometry" />
        </mxCell>
        <mxCell id="eINXOdEoiIzQeCJLC4Ov-316" value="作用：里程计信息初始化" style="text;html=1;strokeColor=none;fillColor=none;align=left;verticalAlign=middle;whiteSpace=wrap;rounded=0;" vertex="1" parent="eINXOdEoiIzQeCJLC4Ov-315">
          <mxGeometry x="7.5" y="30" width="190" height="30" as="geometry" />
        </mxCell>
        <mxCell id="eINXOdEoiIzQeCJLC4Ov-317" value="call" style="endArrow=open;endSize=12;dashed=1;html=1;rounded=0;" edge="1" parent="1">
          <mxGeometry width="160" relative="1" as="geometry">
            <mxPoint x="1586.1" y="2219.66" as="sourcePoint" />
            <mxPoint x="1646.1" y="2219.66" as="targetPoint" />
          </mxGeometry>
        </mxCell>
        <mxCell id="eINXOdEoiIzQeCJLC4Ov-318" value="" style="endArrow=classic;html=1;rounded=0;entryX=0.5;entryY=0;entryDx=0;entryDy=0;exitX=0.5;exitY=1;exitDx=0;exitDy=0;" edge="1" parent="1" source="eINXOdEoiIzQeCJLC4Ov-309" target="eINXOdEoiIzQeCJLC4Ov-311">
          <mxGeometry width="50" height="50" relative="1" as="geometry">
            <mxPoint x="1780" y="2290" as="sourcePoint" />
            <mxPoint x="1970" y="2210" as="targetPoint" />
          </mxGeometry>
        </mxCell>
        <mxCell id="eINXOdEoiIzQeCJLC4Ov-319" value="" style="endArrow=classic;html=1;rounded=0;exitX=0.5;exitY=1;exitDx=0;exitDy=0;entryX=0.5;entryY=0;entryDx=0;entryDy=0;" edge="1" parent="1" source="eINXOdEoiIzQeCJLC4Ov-311" target="eINXOdEoiIzQeCJLC4Ov-313">
          <mxGeometry width="50" height="50" relative="1" as="geometry">
            <mxPoint x="1920" y="2260" as="sourcePoint" />
            <mxPoint x="1970" y="2210" as="targetPoint" />
          </mxGeometry>
        </mxCell>
        <mxCell id="eINXOdEoiIzQeCJLC4Ov-320" value="" style="endArrow=classic;html=1;rounded=0;exitX=0.5;exitY=1;exitDx=0;exitDy=0;entryX=0.5;entryY=0;entryDx=0;entryDy=0;" edge="1" parent="1" source="eINXOdEoiIzQeCJLC4Ov-313" target="eINXOdEoiIzQeCJLC4Ov-315">
          <mxGeometry width="50" height="50" relative="1" as="geometry">
            <mxPoint x="1920" y="2510" as="sourcePoint" />
            <mxPoint x="1970" y="2460" as="targetPoint" />
          </mxGeometry>
        </mxCell>
        <mxCell id="eINXOdEoiIzQeCJLC4Ov-322" value="InitPedestrianContext" style="swimlane;whiteSpace=wrap;html=1;strokeColor=#FF66B3;" vertex="1" parent="1">
          <mxGeometry x="1940" y="2480" width="200" height="135" as="geometry" />
        </mxCell>
        <mxCell id="eINXOdEoiIzQeCJLC4Ov-323" value="作用：计算两个矩形框的交并比iou" style="text;html=1;strokeColor=none;fillColor=none;align=left;verticalAlign=middle;whiteSpace=wrap;rounded=0;" vertex="1" parent="eINXOdEoiIzQeCJLC4Ov-322">
          <mxGeometry x="5" y="30" width="190" height="50" as="geometry" />
        </mxCell>
        <mxCell id="eINXOdEoiIzQeCJLC4Ov-324" value="各参数如下：&lt;br&gt;&lt;span style=&quot;white-space: pre;&quot;&gt;	&lt;/span&gt;r1_ratio: 交集比上初始框&lt;br&gt;&lt;span style=&quot;white-space: pre;&quot;&gt;	&lt;/span&gt;r2_ratio: 交集比上对比框" style="text;html=1;strokeColor=none;fillColor=none;align=left;verticalAlign=middle;whiteSpace=wrap;rounded=0;" vertex="1" parent="eINXOdEoiIzQeCJLC4Ov-322">
          <mxGeometry x="5" y="65" width="185" height="60" as="geometry" />
        </mxCell>
        <mxCell id="eINXOdEoiIzQeCJLC4Ov-325" value="call" style="endArrow=open;endSize=12;dashed=1;html=1;rounded=0;" edge="1" parent="1">
          <mxGeometry width="160" relative="1" as="geometry">
            <mxPoint x="1880" y="2547.16" as="sourcePoint" />
            <mxPoint x="1940" y="2547.16" as="targetPoint" />
          </mxGeometry>
        </mxCell>
        <mxCell id="eINXOdEoiIzQeCJLC4Ov-326" value="SetTrackingConfParamMsg" style="swimlane;whiteSpace=wrap;html=1;strokeColor=#99FF99;" vertex="1" parent="1">
          <mxGeometry x="2420" y="2520" width="200" height="60" as="geometry" />
        </mxCell>
        <mxCell id="eINXOdEoiIzQeCJLC4Ov-327" value="作用：对追踪目标的置信度相关参数进行设置" style="text;html=1;strokeColor=none;fillColor=none;align=left;verticalAlign=middle;whiteSpace=wrap;rounded=0;" vertex="1" parent="eINXOdEoiIzQeCJLC4Ov-326">
          <mxGeometry y="30" width="190" height="30" as="geometry" />
        </mxCell>
        <mxCell id="eINXOdEoiIzQeCJLC4Ov-329" value="call" style="endArrow=open;endSize=12;dashed=1;html=1;rounded=0;" edge="1" parent="1">
          <mxGeometry width="160" relative="1" as="geometry">
            <mxPoint x="2140" y="2557.16" as="sourcePoint" />
            <mxPoint x="2410" y="2557" as="targetPoint" />
          </mxGeometry>
        </mxCell>
        <mxCell id="eINXOdEoiIzQeCJLC4Ov-330" value="SetParsingSettingsMsg" style="swimlane;whiteSpace=wrap;html=1;strokeColor=#99FF99;" vertex="1" parent="1">
          <mxGeometry x="2420" y="2610" width="200" height="70" as="geometry" />
        </mxCell>
        <mxCell id="eINXOdEoiIzQeCJLC4Ov-331" value="作用：语义分割信息设置，parsing_setting_msg_" style="text;html=1;strokeColor=none;fillColor=none;align=left;verticalAlign=middle;whiteSpace=wrap;rounded=0;" vertex="1" parent="eINXOdEoiIzQeCJLC4Ov-330">
          <mxGeometry x="5" y="30" width="190" height="30" as="geometry" />
        </mxCell>
        <mxCell id="eINXOdEoiIzQeCJLC4Ov-332" value="" style="endArrow=classic;html=1;rounded=0;entryX=0.5;entryY=0;entryDx=0;entryDy=0;exitX=0.5;exitY=1;exitDx=0;exitDy=0;" edge="1" parent="1" source="eINXOdEoiIzQeCJLC4Ov-326" target="eINXOdEoiIzQeCJLC4Ov-330">
          <mxGeometry width="50" height="50" relative="1" as="geometry">
            <mxPoint x="2500" y="2510" as="sourcePoint" />
            <mxPoint x="2550" y="2460" as="targetPoint" />
          </mxGeometry>
        </mxCell>
        <mxCell id="eINXOdEoiIzQeCJLC4Ov-333" value="SetSLKTrackerFunc" style="swimlane;whiteSpace=wrap;html=1;strokeColor=#99FF99;" vertex="1" parent="1">
          <mxGeometry x="2420" y="2710" width="200" height="70" as="geometry" />
        </mxCell>
        <mxCell id="eINXOdEoiIzQeCJLC4Ov-334" value="作用：光流追踪设置" style="text;html=1;strokeColor=none;fillColor=none;align=left;verticalAlign=middle;whiteSpace=wrap;rounded=0;" vertex="1" parent="eINXOdEoiIzQeCJLC4Ov-333">
          <mxGeometry x="5" y="30" width="190" height="30" as="geometry" />
        </mxCell>
        <mxCell id="eINXOdEoiIzQeCJLC4Ov-335" value="SetModelMsg" style="swimlane;whiteSpace=wrap;html=1;strokeColor=#99FF99;" vertex="1" parent="1">
          <mxGeometry x="2420" y="2810" width="200" height="70" as="geometry" />
        </mxCell>
        <mxCell id="eINXOdEoiIzQeCJLC4Ov-336" value="作用：FPGA模型设置" style="text;html=1;strokeColor=none;fillColor=none;align=left;verticalAlign=middle;whiteSpace=wrap;rounded=0;" vertex="1" parent="eINXOdEoiIzQeCJLC4Ov-335">
          <mxGeometry x="5" y="30" width="190" height="30" as="geometry" />
        </mxCell>
        <mxCell id="eINXOdEoiIzQeCJLC4Ov-337" value="SetEngineType" style="swimlane;whiteSpace=wrap;html=1;strokeColor=#99FF99;" vertex="1" parent="1">
          <mxGeometry x="2420" y="2910" width="200" height="70" as="geometry" />
        </mxCell>
        <mxCell id="eINXOdEoiIzQeCJLC4Ov-338" value="作用：设置engine_type" style="text;html=1;strokeColor=none;fillColor=none;align=left;verticalAlign=middle;whiteSpace=wrap;rounded=0;" vertex="1" parent="eINXOdEoiIzQeCJLC4Ov-337">
          <mxGeometry x="5" y="30" width="190" height="30" as="geometry" />
        </mxCell>
        <mxCell id="eINXOdEoiIzQeCJLC4Ov-339" value="SetConfigDir" style="swimlane;whiteSpace=wrap;html=1;strokeColor=#99FF99;" vertex="1" parent="1">
          <mxGeometry x="2420" y="3020" width="200" height="70" as="geometry" />
        </mxCell>
        <mxCell id="eINXOdEoiIzQeCJLC4Ov-340" value="作用：设置配置文件路径" style="text;html=1;strokeColor=none;fillColor=none;align=left;verticalAlign=middle;whiteSpace=wrap;rounded=0;" vertex="1" parent="eINXOdEoiIzQeCJLC4Ov-339">
          <mxGeometry x="5" y="30" width="190" height="30" as="geometry" />
        </mxCell>
        <mxCell id="eINXOdEoiIzQeCJLC4Ov-341" value="" style="endArrow=classic;html=1;rounded=0;exitX=0.5;exitY=1;exitDx=0;exitDy=0;entryX=0.5;entryY=0;entryDx=0;entryDy=0;" edge="1" parent="1" source="eINXOdEoiIzQeCJLC4Ov-330" target="eINXOdEoiIzQeCJLC4Ov-333">
          <mxGeometry width="50" height="50" relative="1" as="geometry">
            <mxPoint x="2500" y="2920" as="sourcePoint" />
            <mxPoint x="2550" y="2870" as="targetPoint" />
          </mxGeometry>
        </mxCell>
        <mxCell id="eINXOdEoiIzQeCJLC4Ov-342" value="" style="endArrow=classic;html=1;rounded=0;exitX=0.5;exitY=1;exitDx=0;exitDy=0;entryX=0.5;entryY=0;entryDx=0;entryDy=0;" edge="1" parent="1" source="eINXOdEoiIzQeCJLC4Ov-333" target="eINXOdEoiIzQeCJLC4Ov-335">
          <mxGeometry width="50" height="50" relative="1" as="geometry">
            <mxPoint x="2500" y="2920" as="sourcePoint" />
            <mxPoint x="2550" y="2870" as="targetPoint" />
          </mxGeometry>
        </mxCell>
        <mxCell id="eINXOdEoiIzQeCJLC4Ov-343" value="" style="endArrow=classic;html=1;rounded=0;entryX=0.5;entryY=0;entryDx=0;entryDy=0;exitX=0.5;exitY=1;exitDx=0;exitDy=0;" edge="1" parent="1" source="eINXOdEoiIzQeCJLC4Ov-335" target="eINXOdEoiIzQeCJLC4Ov-337">
          <mxGeometry width="50" height="50" relative="1" as="geometry">
            <mxPoint x="2510" y="2880" as="sourcePoint" />
            <mxPoint x="2550" y="2870" as="targetPoint" />
          </mxGeometry>
        </mxCell>
        <mxCell id="eINXOdEoiIzQeCJLC4Ov-344" value="" style="endArrow=classic;html=1;rounded=0;exitX=0.5;exitY=1;exitDx=0;exitDy=0;entryX=0.5;entryY=0;entryDx=0;entryDy=0;" edge="1" parent="1" source="eINXOdEoiIzQeCJLC4Ov-337" target="eINXOdEoiIzQeCJLC4Ov-339">
          <mxGeometry width="50" height="50" relative="1" as="geometry">
            <mxPoint x="2500" y="2920" as="sourcePoint" />
            <mxPoint x="2550" y="2870" as="targetPoint" />
          </mxGeometry>
        </mxCell>
        <mxCell id="eINXOdEoiIzQeCJLC4Ov-345" value="设置行人配置文件路径" style="rounded=0;whiteSpace=wrap;html=1;strokeColor=#FF66B3;" vertex="1" parent="1">
          <mxGeometry x="1940" y="2660" width="200" height="60" as="geometry" />
        </mxCell>
        <mxCell id="eINXOdEoiIzQeCJLC4Ov-346" value="" style="endArrow=classic;html=1;rounded=0;exitX=0.5;exitY=1;exitDx=0;exitDy=0;" edge="1" parent="1" source="eINXOdEoiIzQeCJLC4Ov-322" target="eINXOdEoiIzQeCJLC4Ov-345">
          <mxGeometry width="50" height="50" relative="1" as="geometry">
            <mxPoint x="2260" y="2880" as="sourcePoint" />
            <mxPoint x="2310" y="2830" as="targetPoint" />
          </mxGeometry>
        </mxCell>
        <mxCell id="eINXOdEoiIzQeCJLC4Ov-347" value="InitConfigPed" style="swimlane;whiteSpace=wrap;html=1;strokeColor=#FF66B3;" vertex="1" parent="1">
          <mxGeometry x="1940" y="2767.5" width="200" height="135" as="geometry" />
        </mxCell>
        <mxCell id="eINXOdEoiIzQeCJLC4Ov-348" value="作用：计算两个矩形框的交并比iou" style="text;html=1;strokeColor=none;fillColor=none;align=left;verticalAlign=middle;whiteSpace=wrap;rounded=0;" vertex="1" parent="eINXOdEoiIzQeCJLC4Ov-347">
          <mxGeometry x="5" y="30" width="190" height="50" as="geometry" />
        </mxCell>
        <mxCell id="eINXOdEoiIzQeCJLC4Ov-349" value="各参数如下：&lt;br&gt;&lt;span style=&quot;white-space: pre;&quot;&gt;	&lt;/span&gt;r1_ratio: 交集比上初始框&lt;br&gt;&lt;span style=&quot;white-space: pre;&quot;&gt;	&lt;/span&gt;r2_ratio: 交集比上对比框" style="text;html=1;strokeColor=none;fillColor=none;align=left;verticalAlign=middle;whiteSpace=wrap;rounded=0;" vertex="1" parent="eINXOdEoiIzQeCJLC4Ov-347">
          <mxGeometry x="5" y="65" width="185" height="60" as="geometry" />
        </mxCell>
        <mxCell id="eINXOdEoiIzQeCJLC4Ov-350" value="" style="endArrow=classic;html=1;rounded=0;exitX=0.5;exitY=1;exitDx=0;exitDy=0;entryX=0.5;entryY=0;entryDx=0;entryDy=0;" edge="1" parent="1" source="eINXOdEoiIzQeCJLC4Ov-345" target="eINXOdEoiIzQeCJLC4Ov-347">
          <mxGeometry width="50" height="50" relative="1" as="geometry">
            <mxPoint x="2370" y="2800" as="sourcePoint" />
            <mxPoint x="2420" y="2750" as="targetPoint" />
          </mxGeometry>
        </mxCell>
        <mxCell id="eINXOdEoiIzQeCJLC4Ov-351" value="SetWspPedContext" style="swimlane;whiteSpace=wrap;html=1;strokeColor=#99FF99;" vertex="1" parent="1">
          <mxGeometry x="2200" y="2767.5" width="200" height="60" as="geometry" />
        </mxCell>
        <mxCell id="eINXOdEoiIzQeCJLC4Ov-352" value="作用：设置ped_context" style="text;html=1;strokeColor=none;fillColor=none;align=left;verticalAlign=middle;whiteSpace=wrap;rounded=0;" vertex="1" parent="eINXOdEoiIzQeCJLC4Ov-351">
          <mxGeometry y="30" width="190" height="30" as="geometry" />
        </mxCell>
        <mxCell id="eINXOdEoiIzQeCJLC4Ov-353" value="Init" style="swimlane;whiteSpace=wrap;html=1;strokeColor=#99FF99;" vertex="1" parent="1">
          <mxGeometry x="2195" y="2863" width="200" height="60" as="geometry" />
        </mxCell>
        <mxCell id="eINXOdEoiIzQeCJLC4Ov-355" value="UpdateOptResultPtr" style="swimlane;whiteSpace=wrap;html=1;strokeColor=#99FF99;" vertex="1" parent="1">
          <mxGeometry x="2190" y="2970" width="200" height="60" as="geometry" />
        </mxCell>
        <mxCell id="eINXOdEoiIzQeCJLC4Ov-356" value="作用：更新opt_result_ptr" style="text;html=1;strokeColor=none;fillColor=none;align=left;verticalAlign=middle;whiteSpace=wrap;rounded=0;" vertex="1" parent="eINXOdEoiIzQeCJLC4Ov-355">
          <mxGeometry y="30" width="190" height="30" as="geometry" />
        </mxCell>
        <mxCell id="eINXOdEoiIzQeCJLC4Ov-358" value="call" style="endArrow=open;endSize=12;dashed=1;html=1;rounded=0;" edge="1" parent="1">
          <mxGeometry width="160" relative="1" as="geometry">
            <mxPoint x="2140" y="2797.02" as="sourcePoint" />
            <mxPoint x="2200" y="2797.02" as="targetPoint" />
          </mxGeometry>
        </mxCell>
        <mxCell id="eINXOdEoiIzQeCJLC4Ov-359" value="" style="endArrow=classic;html=1;rounded=0;exitX=0.5;exitY=1;exitDx=0;exitDy=0;" edge="1" parent="1" source="eINXOdEoiIzQeCJLC4Ov-352" target="eINXOdEoiIzQeCJLC4Ov-353">
          <mxGeometry width="50" height="50" relative="1" as="geometry">
            <mxPoint x="2370" y="2800" as="sourcePoint" />
            <mxPoint x="2420" y="2750" as="targetPoint" />
          </mxGeometry>
        </mxCell>
        <mxCell id="eINXOdEoiIzQeCJLC4Ov-360" value="" style="endArrow=classic;html=1;rounded=0;exitX=0.5;exitY=1;exitDx=0;exitDy=0;entryX=0.5;entryY=0;entryDx=0;entryDy=0;" edge="1" parent="1" target="eINXOdEoiIzQeCJLC4Ov-355">
          <mxGeometry width="50" height="50" relative="1" as="geometry">
            <mxPoint x="2290" y="2923" as="sourcePoint" />
            <mxPoint x="2420" y="2750" as="targetPoint" />
          </mxGeometry>
        </mxCell>
        <mxCell id="eINXOdEoiIzQeCJLC4Ov-363" value="obj_pool_size_pre=10&lt;br&gt;obj_pool_size_max=20" style="rounded=0;whiteSpace=wrap;html=1;strokeColor=#FF66B3;" vertex="1" parent="1">
          <mxGeometry x="1940" y="2950" width="200" height="60" as="geometry" />
        </mxCell>
        <mxCell id="eINXOdEoiIzQeCJLC4Ov-364" value="" style="endArrow=classic;html=1;rounded=0;exitX=0.5;exitY=1;exitDx=0;exitDy=0;" edge="1" parent="1" source="eINXOdEoiIzQeCJLC4Ov-347" target="eINXOdEoiIzQeCJLC4Ov-363">
          <mxGeometry width="50" height="50" relative="1" as="geometry">
            <mxPoint x="2410" y="2800" as="sourcePoint" />
            <mxPoint x="2460" y="2750" as="targetPoint" />
          </mxGeometry>
        </mxCell>
        <mxCell id="eINXOdEoiIzQeCJLC4Ov-365" value="create" style="swimlane;whiteSpace=wrap;html=1;strokeColor=#FF66B3;" vertex="1" parent="1">
          <mxGeometry x="1940" y="3050" width="200" height="80" as="geometry" />
        </mxCell>
        <mxCell id="eINXOdEoiIzQeCJLC4Ov-368" value="ped_enable" style="rhombus;whiteSpace=wrap;html=1;" vertex="1" parent="1">
          <mxGeometry x="1396.1" y="3185" width="80" height="80" as="geometry" />
        </mxCell>
        <mxCell id="eINXOdEoiIzQeCJLC4Ov-369" value="" style="endArrow=classic;html=1;rounded=0;exitX=0.5;exitY=1;exitDx=0;exitDy=0;entryX=0.5;entryY=0;entryDx=0;entryDy=0;" edge="1" parent="1" source="eINXOdEoiIzQeCJLC4Ov-368" target="eINXOdEoiIzQeCJLC4Ov-134">
          <mxGeometry width="50" height="50" relative="1" as="geometry">
            <mxPoint x="2270" y="3180" as="sourcePoint" />
            <mxPoint x="2320" y="3130" as="targetPoint" />
          </mxGeometry>
        </mxCell>
        <mxCell id="eINXOdEoiIzQeCJLC4Ov-370" value="" style="endArrow=classic;html=1;rounded=0;exitX=0.5;exitY=1;exitDx=0;exitDy=0;entryX=0.5;entryY=0;entryDx=0;entryDy=0;" edge="1" parent="1" source="eINXOdEoiIzQeCJLC4Ov-118" target="eINXOdEoiIzQeCJLC4Ov-368">
          <mxGeometry width="50" height="50" relative="1" as="geometry">
            <mxPoint x="2270" y="2790" as="sourcePoint" />
            <mxPoint x="2320" y="2740" as="targetPoint" />
          </mxGeometry>
        </mxCell>
        <mxCell id="eINXOdEoiIzQeCJLC4Ov-371" value="" style="endArrow=classic;html=1;rounded=0;exitX=0.5;exitY=1;exitDx=0;exitDy=0;entryX=0.5;entryY=0;entryDx=0;entryDy=0;" edge="1" parent="1" source="eINXOdEoiIzQeCJLC4Ov-134" target="eINXOdEoiIzQeCJLC4Ov-138">
          <mxGeometry width="50" height="50" relative="1" as="geometry">
            <mxPoint x="1960" y="3630" as="sourcePoint" />
            <mxPoint x="2010" y="3580" as="targetPoint" />
          </mxGeometry>
        </mxCell>
        <mxCell id="eINXOdEoiIzQeCJLC4Ov-372" value="得到roi_bottom_" style="rounded=0;whiteSpace=wrap;html=1;" vertex="1" parent="1">
          <mxGeometry x="1376.1" y="3790" width="120" height="60" as="geometry" />
        </mxCell>
        <mxCell id="eINXOdEoiIzQeCJLC4Ov-373" value="" style="endArrow=classic;html=1;rounded=0;exitX=0.5;exitY=1;exitDx=0;exitDy=0;entryX=0.5;entryY=0;entryDx=0;entryDy=0;" edge="1" parent="1" source="eINXOdEoiIzQeCJLC4Ov-138" target="eINXOdEoiIzQeCJLC4Ov-372">
          <mxGeometry width="50" height="50" relative="1" as="geometry">
            <mxPoint x="1960" y="3890" as="sourcePoint" />
            <mxPoint x="2010" y="3840" as="targetPoint" />
          </mxGeometry>
        </mxCell>
        <mxCell id="eINXOdEoiIzQeCJLC4Ov-374" value="" style="endArrow=classic;html=1;rounded=0;exitX=0.5;exitY=1;exitDx=0;exitDy=0;" edge="1" parent="1" source="eINXOdEoiIzQeCJLC4Ov-363" target="eINXOdEoiIzQeCJLC4Ov-365">
          <mxGeometry width="50" height="50" relative="1" as="geometry">
            <mxPoint x="1880" y="3190" as="sourcePoint" />
            <mxPoint x="1930" y="3140" as="targetPoint" />
          </mxGeometry>
        </mxCell>
        <mxCell id="eINXOdEoiIzQeCJLC4Ov-375" value="" style="endArrow=classic;html=1;rounded=0;exitX=0.5;exitY=1;exitDx=0;exitDy=0;entryX=0.5;entryY=0;entryDx=0;entryDy=0;" edge="1" parent="1" source="eINXOdEoiIzQeCJLC4Ov-372" target="eINXOdEoiIzQeCJLC4Ov-142">
          <mxGeometry width="50" height="50" relative="1" as="geometry">
            <mxPoint x="1730" y="3840" as="sourcePoint" />
            <mxPoint x="1780" y="3790" as="targetPoint" />
          </mxGeometry>
        </mxCell>
        <mxCell id="eINXOdEoiIzQeCJLC4Ov-376" value="Predict" style="swimlane;whiteSpace=wrap;html=1;strokeColor=#6666FF;" vertex="1" parent="1">
          <mxGeometry x="1610" y="3885" width="200" height="140" as="geometry" />
        </mxCell>
        <mxCell id="eINXOdEoiIzQeCJLC4Ov-377" value="作用：待跟踪目标状态更新" style="text;html=1;strokeColor=none;fillColor=none;align=left;verticalAlign=middle;whiteSpace=wrap;rounded=0;" vertex="1" parent="eINXOdEoiIzQeCJLC4Ov-376">
          <mxGeometry x="7.5" y="30" width="190" height="30" as="geometry" />
        </mxCell>
        <mxCell id="eINXOdEoiIzQeCJLC4Ov-378" value="GetInputCount" style="swimlane;whiteSpace=wrap;html=1;strokeColor=#6666FF;" vertex="1" parent="1">
          <mxGeometry x="1601.25" y="4050" width="217.5" height="140" as="geometry" />
        </mxCell>
        <mxCell id="eINXOdEoiIzQeCJLC4Ov-379" value="作用：里程计信息初始化" style="text;html=1;strokeColor=none;fillColor=none;align=left;verticalAlign=middle;whiteSpace=wrap;rounded=0;" vertex="1" parent="eINXOdEoiIzQeCJLC4Ov-378">
          <mxGeometry x="7.5" y="30" width="190" height="30" as="geometry" />
        </mxCell>
        <mxCell id="eINXOdEoiIzQeCJLC4Ov-427" value="各参数如下：&lt;br style=&quot;border-color: var(--border-color); text-align: left;&quot;&gt;&lt;span style=&quot;text-align: left;&quot;&gt;Input_count_: count of input frames, inited at creation&lt;/span&gt;" style="text;html=1;strokeColor=none;fillColor=none;align=left;verticalAlign=middle;whiteSpace=wrap;rounded=0;" vertex="1" parent="eINXOdEoiIzQeCJLC4Ov-378">
          <mxGeometry x="7.5" y="60" width="192.5" height="50" as="geometry" />
        </mxCell>
        <mxCell id="eINXOdEoiIzQeCJLC4Ov-380" value="GetCurInputStatusByIdx" style="swimlane;whiteSpace=wrap;html=1;strokeColor=#6666FF;" vertex="1" parent="1">
          <mxGeometry x="1610" y="4220" width="200" height="140" as="geometry" />
        </mxCell>
        <mxCell id="eINXOdEoiIzQeCJLC4Ov-431" value="作用：返回inputs_status_[idx]" style="text;html=1;strokeColor=none;fillColor=none;align=left;verticalAlign=middle;whiteSpace=wrap;rounded=0;" vertex="1" parent="eINXOdEoiIzQeCJLC4Ov-380">
          <mxGeometry x="7.5" y="30" width="190" height="30" as="geometry" />
        </mxCell>
        <mxCell id="eINXOdEoiIzQeCJLC4Ov-382" value="GetLastInputFrameByIdx" style="swimlane;whiteSpace=wrap;html=1;strokeColor=#6666FF;" vertex="1" parent="1">
          <mxGeometry x="1610" y="4380" width="200" height="140" as="geometry" />
        </mxCell>
        <mxCell id="eINXOdEoiIzQeCJLC4Ov-430" value="作用：得到一次输入的第input_idx帧数据，可以为不同摄像头，也可以是一个摄像头输入的几帧。&lt;br&gt;frame_buf_-&amp;gt;GetWriteBuff()-&amp;gt;inputs_frame_[idx]" style="text;html=1;strokeColor=none;fillColor=none;align=left;verticalAlign=middle;whiteSpace=wrap;rounded=0;" vertex="1" parent="eINXOdEoiIzQeCJLC4Ov-382">
          <mxGeometry x="5" y="32.5" width="190" height="80" as="geometry" />
        </mxCell>
        <mxCell id="eINXOdEoiIzQeCJLC4Ov-384" value="DistortPerceptionRect" style="swimlane;whiteSpace=wrap;html=1;strokeColor=#6666FF;" vertex="1" parent="1">
          <mxGeometry x="1610" y="4536" width="200" height="140" as="geometry" />
        </mxCell>
        <mxCell id="eINXOdEoiIzQeCJLC4Ov-385" value="作用：对感知框进行畸变，从而将预测的感知框映射到原图中" style="text;html=1;strokeColor=none;fillColor=none;align=left;verticalAlign=middle;whiteSpace=wrap;rounded=0;" vertex="1" parent="eINXOdEoiIzQeCJLC4Ov-384">
          <mxGeometry x="7.5" y="30" width="190" height="30" as="geometry" />
        </mxCell>
        <mxCell id="eINXOdEoiIzQeCJLC4Ov-386" value="PredictInput" style="swimlane;whiteSpace=wrap;html=1;strokeColor=#FF66B3;" vertex="1" parent="1">
          <mxGeometry x="1855" y="4400" width="210" height="250" as="geometry" />
        </mxCell>
        <mxCell id="eINXOdEoiIzQeCJLC4Ov-416" value="各参数如下：&lt;br&gt;inputs_status_:一帧内的所有目标&lt;br&gt;cur_tf_in-&amp;gt;source_:&lt;br&gt;" style="text;html=1;strokeColor=none;fillColor=none;align=left;verticalAlign=middle;whiteSpace=wrap;rounded=0;" vertex="1" parent="eINXOdEoiIzQeCJLC4Ov-386">
          <mxGeometry x="10" y="150" width="190" height="52.5" as="geometry" />
        </mxCell>
        <mxCell id="eINXOdEoiIzQeCJLC4Ov-417" value="作用：对目标进行预测&lt;br&gt;status为true使用相对速度进行当前位置预测，为false时使用绝对速度进行预测（实际上用的还是相对速度，默认自车为0，或者认为相对速度不考虑自车转向）。" style="text;html=1;strokeColor=none;fillColor=none;align=left;verticalAlign=middle;whiteSpace=wrap;rounded=0;" vertex="1" parent="eINXOdEoiIzQeCJLC4Ov-386">
          <mxGeometry x="10" y="22.5" width="190" height="107.5" as="geometry" />
        </mxCell>
        <mxCell id="eINXOdEoiIzQeCJLC4Ov-387" value="PredictStatus" style="swimlane;whiteSpace=wrap;html=1;strokeColor=#FF66B3;" vertex="1" parent="1">
          <mxGeometry x="1860" y="3890" width="200" height="470" as="geometry" />
        </mxCell>
        <mxCell id="eINXOdEoiIzQeCJLC4Ov-403" value="作用：对当前帧的各个状态值进行预测与更新" style="text;html=1;strokeColor=none;fillColor=none;align=left;verticalAlign=middle;whiteSpace=wrap;rounded=0;" vertex="1" parent="eINXOdEoiIzQeCJLC4Ov-387">
          <mxGeometry x="5" y="27.5" width="190" height="30" as="geometry" />
        </mxCell>
        <mxCell id="eINXOdEoiIzQeCJLC4Ov-404" value="各参数如下：&lt;br&gt;pos_cam_: 当前帧&lt;br&gt;pos_by_cb_：？&lt;br&gt;hostveh_speed_:&lt;br&gt;hostveh_yaw_:&lt;br&gt;hostveh_yawrate:&lt;br&gt;hostveh_x:&lt;br&gt;hostveh_y:&lt;br&gt;time_stamp_:&lt;br&gt;frame_id_:&lt;br&gt;dt_:&lt;br&gt;pos_vcs_:&lt;br&gt;world_vel_&lt;br&gt;ref_vel_:&lt;br&gt;abs_vel_world_:&lt;br&gt;is_covered_:&lt;br&gt;type_cyc_:&lt;br&gt;occlusion_cls_res_:&lt;br&gt;life_frame_: 有感知的帧数量统计&lt;br&gt;life_time_: 当前帧至第一帧之间的时长&lt;br&gt;frames_of_no_dispatch_：连续帧的数量&lt;br&gt;frames_of_no_coorect_:没有修正的帧数&lt;br&gt;miss_tracking_:跟踪次数？&lt;br&gt;miss_detection_: 有感知信息的次数" style="text;html=1;strokeColor=none;fillColor=none;align=left;verticalAlign=middle;whiteSpace=wrap;rounded=0;" vertex="1" parent="eINXOdEoiIzQeCJLC4Ov-387">
          <mxGeometry x="10" y="65" width="190" height="405" as="geometry" />
        </mxCell>
        <mxCell id="eINXOdEoiIzQeCJLC4Ov-388" value="call" style="endArrow=open;endSize=12;dashed=1;html=1;rounded=0;" edge="1" parent="1">
          <mxGeometry width="160" relative="1" as="geometry">
            <mxPoint x="1560" y="3964.26" as="sourcePoint" />
            <mxPoint x="1610" y="3964" as="targetPoint" />
          </mxGeometry>
        </mxCell>
        <mxCell id="eINXOdEoiIzQeCJLC4Ov-389" value="call" style="endArrow=open;endSize=12;dashed=1;html=1;rounded=0;" edge="1" parent="1">
          <mxGeometry width="160" relative="1" as="geometry">
            <mxPoint x="1810" y="3925.05" as="sourcePoint" />
            <mxPoint x="1860" y="3924.79" as="targetPoint" />
          </mxGeometry>
        </mxCell>
        <mxCell id="eINXOdEoiIzQeCJLC4Ov-390" value="" style="endArrow=classic;html=1;rounded=0;exitX=0.5;exitY=1;exitDx=0;exitDy=0;entryX=0.5;entryY=0;entryDx=0;entryDy=0;" edge="1" parent="1" source="eINXOdEoiIzQeCJLC4Ov-387" target="eINXOdEoiIzQeCJLC4Ov-386">
          <mxGeometry width="50" height="50" relative="1" as="geometry">
            <mxPoint x="1740" y="3940" as="sourcePoint" />
            <mxPoint x="1790" y="3890" as="targetPoint" />
          </mxGeometry>
        </mxCell>
        <mxCell id="eINXOdEoiIzQeCJLC4Ov-391" value="UpdateStatusFramePtr" style="swimlane;whiteSpace=wrap;html=1;strokeColor=#99FF99;" vertex="1" parent="1">
          <mxGeometry x="2110" y="3885" width="200" height="125" as="geometry" />
        </mxCell>
        <mxCell id="eINXOdEoiIzQeCJLC4Ov-401" value="作用：对当前帧和上一帧进行信息获取" style="text;html=1;strokeColor=none;fillColor=none;align=left;verticalAlign=middle;whiteSpace=wrap;rounded=0;" vertex="1" parent="eINXOdEoiIzQeCJLC4Ov-391">
          <mxGeometry x="5" y="30" width="190" height="30" as="geometry" />
        </mxCell>
        <mxCell id="eINXOdEoiIzQeCJLC4Ov-402" value="各参数如下：&lt;br&gt;cur_status_frame: 当前帧&lt;br&gt;pre_status_frame_：上一帧" style="text;html=1;strokeColor=none;fillColor=none;align=left;verticalAlign=middle;whiteSpace=wrap;rounded=0;" vertex="1" parent="eINXOdEoiIzQeCJLC4Ov-391">
          <mxGeometry x="5" y="60" width="190" height="52.5" as="geometry" />
        </mxCell>
        <mxCell id="eINXOdEoiIzQeCJLC4Ov-393" value="" style="endArrow=classic;html=1;rounded=0;exitX=0.5;exitY=1;exitDx=0;exitDy=0;entryX=0.5;entryY=0;entryDx=0;entryDy=0;" edge="1" parent="1" source="eINXOdEoiIzQeCJLC4Ov-376" target="eINXOdEoiIzQeCJLC4Ov-378">
          <mxGeometry width="50" height="50" relative="1" as="geometry">
            <mxPoint x="1900" y="4170" as="sourcePoint" />
            <mxPoint x="1950" y="4120" as="targetPoint" />
          </mxGeometry>
        </mxCell>
        <mxCell id="eINXOdEoiIzQeCJLC4Ov-394" value="call" style="endArrow=open;endSize=12;dashed=1;html=1;rounded=0;" edge="1" parent="1">
          <mxGeometry width="160" relative="1" as="geometry">
            <mxPoint x="2060" y="3914.96" as="sourcePoint" />
            <mxPoint x="2110" y="3914.7" as="targetPoint" />
          </mxGeometry>
        </mxCell>
        <mxCell id="eINXOdEoiIzQeCJLC4Ov-395" value="GetLastStatusFrame" style="swimlane;whiteSpace=wrap;html=1;strokeColor=#FFCCE6;" vertex="1" parent="1">
          <mxGeometry x="2360" y="3885" width="200" height="60" as="geometry" />
        </mxCell>
        <mxCell id="eINXOdEoiIzQeCJLC4Ov-397" value="作用：获取最新帧信息" style="text;html=1;strokeColor=none;fillColor=none;align=left;verticalAlign=middle;whiteSpace=wrap;rounded=0;" vertex="1" parent="eINXOdEoiIzQeCJLC4Ov-395">
          <mxGeometry y="27.5" width="190" height="30" as="geometry" />
        </mxCell>
        <mxCell id="eINXOdEoiIzQeCJLC4Ov-396" value="GetPrevStatusFrame" style="swimlane;whiteSpace=wrap;html=1;strokeColor=#FFCCE6;" vertex="1" parent="1">
          <mxGeometry x="2355" y="3980" width="200" height="60" as="geometry" />
        </mxCell>
        <mxCell id="eINXOdEoiIzQeCJLC4Ov-398" value="作用：获取上一帧信息" style="text;html=1;strokeColor=none;fillColor=none;align=left;verticalAlign=middle;whiteSpace=wrap;rounded=0;" vertex="1" parent="eINXOdEoiIzQeCJLC4Ov-396">
          <mxGeometry x="5" y="30" width="190" height="30" as="geometry" />
        </mxCell>
        <mxCell id="eINXOdEoiIzQeCJLC4Ov-399" value="call" style="endArrow=open;endSize=12;dashed=1;html=1;rounded=0;" edge="1" parent="1">
          <mxGeometry width="160" relative="1" as="geometry">
            <mxPoint x="2310" y="3900.26" as="sourcePoint" />
            <mxPoint x="2360" y="3900" as="targetPoint" />
          </mxGeometry>
        </mxCell>
        <mxCell id="eINXOdEoiIzQeCJLC4Ov-400" value="" style="endArrow=classic;html=1;rounded=0;exitX=0.5;exitY=1;exitDx=0;exitDy=0;entryX=0.5;entryY=0;entryDx=0;entryDy=0;" edge="1" parent="1" source="eINXOdEoiIzQeCJLC4Ov-397" target="eINXOdEoiIzQeCJLC4Ov-396">
          <mxGeometry width="50" height="50" relative="1" as="geometry">
            <mxPoint x="2460" y="3930" as="sourcePoint" />
            <mxPoint x="2510" y="3880" as="targetPoint" />
          </mxGeometry>
        </mxCell>
        <mxCell id="eINXOdEoiIzQeCJLC4Ov-405" value="GetPrevInputFrameByIdx" style="swimlane;whiteSpace=wrap;html=1;strokeColor=#99FF99;" vertex="1" parent="1">
          <mxGeometry x="2110" y="4360" width="200" height="130" as="geometry" />
        </mxCell>
        <mxCell id="eINXOdEoiIzQeCJLC4Ov-406" value="作用：得到一次输入的第input_idx帧数据，可以为不同摄像头，也可以是一个摄像头输入的几帧。&lt;br&gt;frame_buf_-&amp;gt;Pop()-&amp;gt;inputs_frame_[idx]" style="text;html=1;strokeColor=none;fillColor=none;align=left;verticalAlign=middle;whiteSpace=wrap;rounded=0;" vertex="1" parent="eINXOdEoiIzQeCJLC4Ov-405">
          <mxGeometry x="5" y="30" width="190" height="90" as="geometry" />
        </mxCell>
        <mxCell id="eINXOdEoiIzQeCJLC4Ov-408" value="call" style="endArrow=open;endSize=12;dashed=1;html=1;rounded=0;" edge="1" parent="1">
          <mxGeometry width="160" relative="1" as="geometry">
            <mxPoint x="2060" y="4399.76" as="sourcePoint" />
            <mxPoint x="2110" y="4399.5" as="targetPoint" />
          </mxGeometry>
        </mxCell>
        <mxCell id="eINXOdEoiIzQeCJLC4Ov-409" value="GetnewInputFrame" style="swimlane;whiteSpace=wrap;html=1;strokeColor=#99FF99;" vertex="1" parent="1">
          <mxGeometry x="2110" y="4530" width="200" height="110" as="geometry" />
        </mxCell>
        <mxCell id="eINXOdEoiIzQeCJLC4Ov-410" value="作用：得到一次输入的第input_idx帧数据，可以为不同摄像头，也可以是一个摄像头输入的几帧。&lt;br&gt;frame_buf_-&amp;gt;GetWriteBuff()-&amp;gt;inputs_frame_[idx]" style="text;html=1;strokeColor=none;fillColor=none;align=left;verticalAlign=middle;whiteSpace=wrap;rounded=0;" vertex="1" parent="eINXOdEoiIzQeCJLC4Ov-409">
          <mxGeometry x="5" y="30" width="190" height="80" as="geometry" />
        </mxCell>
        <mxCell id="eINXOdEoiIzQeCJLC4Ov-415" value="call" style="endArrow=open;endSize=12;dashed=1;html=1;rounded=0;" edge="1" parent="eINXOdEoiIzQeCJLC4Ov-409">
          <mxGeometry width="160" relative="1" as="geometry">
            <mxPoint x="195" y="17.26000000000022" as="sourcePoint" />
            <mxPoint x="245" y="17" as="targetPoint" />
            <mxPoint as="offset" />
          </mxGeometry>
        </mxCell>
        <mxCell id="eINXOdEoiIzQeCJLC4Ov-411" value="" style="endArrow=classic;html=1;rounded=0;exitX=0.5;exitY=1;exitDx=0;exitDy=0;entryX=0.5;entryY=0;entryDx=0;entryDy=0;" edge="1" parent="1" source="eINXOdEoiIzQeCJLC4Ov-405" target="eINXOdEoiIzQeCJLC4Ov-409">
          <mxGeometry width="50" height="50" relative="1" as="geometry">
            <mxPoint x="2160" y="4230" as="sourcePoint" />
            <mxPoint x="2210" y="4180" as="targetPoint" />
          </mxGeometry>
        </mxCell>
        <mxCell id="eINXOdEoiIzQeCJLC4Ov-412" value="GetLastInputFrameByIdx" style="swimlane;whiteSpace=wrap;html=1;strokeColor=#FFCCE6;" vertex="1" parent="1">
          <mxGeometry x="2355" y="4530" width="200" height="114" as="geometry" />
        </mxCell>
        <mxCell id="eINXOdEoiIzQeCJLC4Ov-414" value="作用：得到一次输入的第input_idx帧数据，可以为不同摄像头，也可以是一个摄像头输入的几帧。&lt;br&gt;frame_buf_-&amp;gt;GetWriteBuff()-&amp;gt;inputs_frame_[idx]" style="text;html=1;strokeColor=none;fillColor=none;align=left;verticalAlign=middle;whiteSpace=wrap;rounded=0;" vertex="1" parent="eINXOdEoiIzQeCJLC4Ov-412">
          <mxGeometry x="5" y="30" width="190" height="80" as="geometry" />
        </mxCell>
        <mxCell id="eINXOdEoiIzQeCJLC4Ov-418" value="RectImageToGround" style="swimlane;whiteSpace=wrap;html=1;strokeColor=#99FF99;" vertex="1" parent="1">
          <mxGeometry x="2110" y="4690" width="200" height="110" as="geometry" />
        </mxCell>
        <mxCell id="eINXOdEoiIzQeCJLC4Ov-419" value="作用：将图像上的点转到地面上，此处将矩形框的左下角、下中点、右下角转到地面坐标系" style="text;html=1;strokeColor=none;fillColor=none;align=left;verticalAlign=middle;whiteSpace=wrap;rounded=0;" vertex="1" parent="eINXOdEoiIzQeCJLC4Ov-418">
          <mxGeometry x="5" y="30" width="190" height="80" as="geometry" />
        </mxCell>
        <mxCell id="eINXOdEoiIzQeCJLC4Ov-420" value="call" style="endArrow=open;endSize=12;dashed=1;html=1;rounded=0;" edge="1" parent="eINXOdEoiIzQeCJLC4Ov-418">
          <mxGeometry width="160" relative="1" as="geometry">
            <mxPoint x="195" y="17.26000000000022" as="sourcePoint" />
            <mxPoint x="245" y="17" as="targetPoint" />
          </mxGeometry>
        </mxCell>
        <mxCell id="eINXOdEoiIzQeCJLC4Ov-421" value="" style="endArrow=classic;html=1;rounded=0;exitX=0.5;exitY=1;exitDx=0;exitDy=0;entryX=0.5;entryY=0;entryDx=0;entryDy=0;" edge="1" parent="1" source="eINXOdEoiIzQeCJLC4Ov-410" target="eINXOdEoiIzQeCJLC4Ov-418">
          <mxGeometry width="50" height="50" relative="1" as="geometry">
            <mxPoint x="2070" y="4290" as="sourcePoint" />
            <mxPoint x="2120" y="4240" as="targetPoint" />
          </mxGeometry>
        </mxCell>
        <mxCell id="eINXOdEoiIzQeCJLC4Ov-422" value="Mat3x3Multiply" style="swimlane;whiteSpace=wrap;html=1;strokeColor=#FFCCE6;" vertex="1" parent="1">
          <mxGeometry x="2360" y="4688" width="200" height="114" as="geometry" />
        </mxCell>
        <mxCell id="eINXOdEoiIzQeCJLC4Ov-423" value="作用：变换矩阵" style="text;html=1;strokeColor=none;fillColor=none;align=left;verticalAlign=middle;whiteSpace=wrap;rounded=0;" vertex="1" parent="eINXOdEoiIzQeCJLC4Ov-422">
          <mxGeometry x="5" y="30" width="190" height="80" as="geometry" />
        </mxCell>
        <mxCell id="eINXOdEoiIzQeCJLC4Ov-424" value="" style="endArrow=classic;html=1;rounded=0;exitX=0.5;exitY=1;exitDx=0;exitDy=0;entryX=0.5;entryY=0;entryDx=0;entryDy=0;" edge="1" parent="1" source="eINXOdEoiIzQeCJLC4Ov-378" target="eINXOdEoiIzQeCJLC4Ov-380">
          <mxGeometry width="50" height="50" relative="1" as="geometry">
            <mxPoint x="2070" y="4330" as="sourcePoint" />
            <mxPoint x="2120" y="4280" as="targetPoint" />
          </mxGeometry>
        </mxCell>
        <mxCell id="eINXOdEoiIzQeCJLC4Ov-425" value="" style="endArrow=classic;html=1;rounded=0;exitX=0.5;exitY=1;exitDx=0;exitDy=0;" edge="1" parent="1" source="eINXOdEoiIzQeCJLC4Ov-380" target="eINXOdEoiIzQeCJLC4Ov-382">
          <mxGeometry width="50" height="50" relative="1" as="geometry">
            <mxPoint x="2070" y="4330" as="sourcePoint" />
            <mxPoint x="2120" y="4280" as="targetPoint" />
          </mxGeometry>
        </mxCell>
        <mxCell id="eINXOdEoiIzQeCJLC4Ov-426" value="" style="endArrow=classic;html=1;rounded=0;exitX=0.5;exitY=1;exitDx=0;exitDy=0;entryX=0.5;entryY=0;entryDx=0;entryDy=0;" edge="1" parent="1" source="eINXOdEoiIzQeCJLC4Ov-382" target="eINXOdEoiIzQeCJLC4Ov-384">
          <mxGeometry width="50" height="50" relative="1" as="geometry">
            <mxPoint x="2070" y="4330" as="sourcePoint" />
            <mxPoint x="2120" y="4280" as="targetPoint" />
          </mxGeometry>
        </mxCell>
        <mxCell id="eINXOdEoiIzQeCJLC4Ov-432" value="" style="endArrow=classic;html=1;rounded=0;exitX=0.5;exitY=1;exitDx=0;exitDy=0;entryX=0.5;entryY=0;entryDx=0;entryDy=0;" edge="1" parent="1" source="eINXOdEoiIzQeCJLC4Ov-142" target="eINXOdEoiIzQeCJLC4Ov-433">
          <mxGeometry width="50" height="50" relative="1" as="geometry">
            <mxPoint x="2100" y="4370" as="sourcePoint" />
            <mxPoint x="1436" y="4260" as="targetPoint" />
          </mxGeometry>
        </mxCell>
        <mxCell id="eINXOdEoiIzQeCJLC4Ov-433" value="RefreshPath" style="swimlane;whiteSpace=wrap;html=1;" vertex="1" parent="1">
          <mxGeometry x="1311.1" y="4710" width="250" height="250" as="geometry" />
        </mxCell>
        <mxCell id="eINXOdEoiIzQeCJLC4Ov-434" value="作用：将道路线的系数存储在cur_path_中" style="text;html=1;align=left;verticalAlign=middle;resizable=0;points=[];autosize=1;strokeColor=none;fillColor=none;" vertex="1" parent="eINXOdEoiIzQeCJLC4Ov-433">
          <mxGeometry x="7.5" y="35" width="240" height="30" as="geometry" />
        </mxCell>
        <mxCell id="eINXOdEoiIzQeCJLC4Ov-435" value="各参数如下：" style="text;html=1;strokeColor=none;fillColor=none;align=center;verticalAlign=middle;whiteSpace=wrap;rounded=0;" vertex="1" parent="eINXOdEoiIzQeCJLC4Ov-433">
          <mxGeometry y="70" width="90" height="30" as="geometry" />
        </mxCell>
        <mxCell id="eINXOdEoiIzQeCJLC4Ov-436" value="" style="endArrow=classic;html=1;rounded=0;exitX=0.5;exitY=1;exitDx=0;exitDy=0;entryX=0.5;entryY=0;entryDx=0;entryDy=0;" edge="1" parent="1" source="eINXOdEoiIzQeCJLC4Ov-433" target="eINXOdEoiIzQeCJLC4Ov-146">
          <mxGeometry width="50" height="50" relative="1" as="geometry">
            <mxPoint x="1980" y="5160" as="sourcePoint" />
            <mxPoint x="2030" y="5110" as="targetPoint" />
          </mxGeometry>
        </mxCell>
        <mxCell id="eINXOdEoiIzQeCJLC4Ov-437" value="" style="endArrow=classic;html=1;rounded=0;exitX=0.5;exitY=1;exitDx=0;exitDy=0;" edge="1" parent="1" source="eINXOdEoiIzQeCJLC4Ov-146" target="eINXOdEoiIzQeCJLC4Ov-150">
          <mxGeometry width="50" height="50" relative="1" as="geometry">
            <mxPoint x="1540" y="5410" as="sourcePoint" />
            <mxPoint x="1590" y="5360" as="targetPoint" />
          </mxGeometry>
        </mxCell>
        <mxCell id="eINXOdEoiIzQeCJLC4Ov-438" value="UnDistortPerceptions" style="swimlane;whiteSpace=wrap;html=1;strokeColor=#6666FF;" vertex="1" parent="1">
          <mxGeometry x="1610" y="5210" width="200" height="80" as="geometry" />
        </mxCell>
        <mxCell id="eINXOdEoiIzQeCJLC4Ov-445" value="作用：对感知框去畸变" style="text;html=1;strokeColor=none;fillColor=none;align=left;verticalAlign=middle;whiteSpace=wrap;rounded=0;" vertex="1" parent="eINXOdEoiIzQeCJLC4Ov-438">
          <mxGeometry x="10" y="32.5" width="190" height="47.5" as="geometry" />
        </mxCell>
        <mxCell id="eINXOdEoiIzQeCJLC4Ov-442" value="UndistortPerceptionRect" style="swimlane;whiteSpace=wrap;html=1;strokeColor=#FF66B3;" vertex="1" parent="1">
          <mxGeometry x="1870" y="5210" width="210" height="80" as="geometry" />
        </mxCell>
        <mxCell id="eINXOdEoiIzQeCJLC4Ov-444" value="作用：对感知框去畸变" style="text;html=1;strokeColor=none;fillColor=none;align=left;verticalAlign=middle;whiteSpace=wrap;rounded=0;" vertex="1" parent="eINXOdEoiIzQeCJLC4Ov-442">
          <mxGeometry x="10" y="22.5" width="190" height="47.5" as="geometry" />
        </mxCell>
        <mxCell id="eINXOdEoiIzQeCJLC4Ov-446" value="call" style="endArrow=open;endSize=12;dashed=1;html=1;rounded=0;" edge="1" parent="1">
          <mxGeometry width="160" relative="1" as="geometry">
            <mxPoint x="1560" y="5249.84" as="sourcePoint" />
            <mxPoint x="1610" y="5249.58" as="targetPoint" />
          </mxGeometry>
        </mxCell>
        <mxCell id="eINXOdEoiIzQeCJLC4Ov-447" value="call" style="endArrow=open;endSize=12;dashed=1;html=1;rounded=0;" edge="1" parent="1">
          <mxGeometry width="160" relative="1" as="geometry">
            <mxPoint x="1810" y="5240.26" as="sourcePoint" />
            <mxPoint x="1860" y="5240" as="targetPoint" />
          </mxGeometry>
        </mxCell>
        <mxCell id="eINXOdEoiIzQeCJLC4Ov-448" value="" style="endArrow=classic;html=1;rounded=0;exitX=0.5;exitY=1;exitDx=0;exitDy=0;entryX=0.5;entryY=0;entryDx=0;entryDy=0;" edge="1" parent="1" source="eINXOdEoiIzQeCJLC4Ov-150" target="eINXOdEoiIzQeCJLC4Ov-154">
          <mxGeometry width="50" height="50" relative="1" as="geometry">
            <mxPoint x="2010" y="5480" as="sourcePoint" />
            <mxPoint x="2060" y="5430" as="targetPoint" />
          </mxGeometry>
        </mxCell>
        <mxCell id="eINXOdEoiIzQeCJLC4Ov-449" value="" style="endArrow=classic;html=1;rounded=0;exitX=0.5;exitY=1;exitDx=0;exitDy=0;entryX=0.5;entryY=0;entryDx=0;entryDy=0;" edge="1" parent="1" source="eINXOdEoiIzQeCJLC4Ov-154" target="eINXOdEoiIzQeCJLC4Ov-158">
          <mxGeometry width="50" height="50" relative="1" as="geometry">
            <mxPoint x="1660" y="5500" as="sourcePoint" />
            <mxPoint x="1710" y="5450" as="targetPoint" />
          </mxGeometry>
        </mxCell>
        <mxCell id="eINXOdEoiIzQeCJLC4Ov-450" value="GetOriginPerceptionList" style="swimlane;whiteSpace=wrap;html=1;strokeColor=#6666FF;" vertex="1" parent="1">
          <mxGeometry x="1618.75" y="5520" width="200" height="80" as="geometry" />
        </mxCell>
        <mxCell id="eINXOdEoiIzQeCJLC4Ov-451" value="作用：返回origin_perception_list_" style="text;html=1;strokeColor=none;fillColor=none;align=left;verticalAlign=middle;whiteSpace=wrap;rounded=0;" vertex="1" parent="eINXOdEoiIzQeCJLC4Ov-450">
          <mxGeometry x="10" y="32.5" width="190" height="47.5" as="geometry" />
        </mxCell>
        <mxCell id="eINXOdEoiIzQeCJLC4Ov-452" value="call" style="endArrow=open;endSize=12;dashed=1;html=1;rounded=0;" edge="1" parent="1">
          <mxGeometry width="160" relative="1" as="geometry">
            <mxPoint x="1568.75" y="5560.09" as="sourcePoint" />
            <mxPoint x="1618.75" y="5559.83" as="targetPoint" />
          </mxGeometry>
        </mxCell>
        <mxCell id="eINXOdEoiIzQeCJLC4Ov-453" value="" style="endArrow=classic;html=1;rounded=0;exitX=0.5;exitY=1;exitDx=0;exitDy=0;entryX=0.5;entryY=0;entryDx=0;entryDy=0;" edge="1" parent="1" source="eINXOdEoiIzQeCJLC4Ov-158" target="eINXOdEoiIzQeCJLC4Ov-162">
          <mxGeometry width="50" height="50" relative="1" as="geometry">
            <mxPoint x="1820" y="5830" as="sourcePoint" />
            <mxPoint x="1870" y="5780" as="targetPoint" />
          </mxGeometry>
        </mxCell>
        <mxCell id="eINXOdEoiIzQeCJLC4Ov-454" value="" style="endArrow=classic;html=1;rounded=0;exitX=0.5;exitY=1;exitDx=0;exitDy=0;entryX=0.5;entryY=0;entryDx=0;entryDy=0;" edge="1" parent="1" source="eINXOdEoiIzQeCJLC4Ov-162" target="eINXOdEoiIzQeCJLC4Ov-166">
          <mxGeometry width="50" height="50" relative="1" as="geometry">
            <mxPoint x="1860" y="5930" as="sourcePoint" />
            <mxPoint x="1910" y="5880" as="targetPoint" />
          </mxGeometry>
        </mxCell>
        <mxCell id="eINXOdEoiIzQeCJLC4Ov-455" value="call" style="endArrow=open;endSize=12;dashed=1;html=1;rounded=0;" edge="1" parent="1">
          <mxGeometry width="160" relative="1" as="geometry">
            <mxPoint x="1568.75" y="5820.26" as="sourcePoint" />
            <mxPoint x="1618.75" y="5820" as="targetPoint" />
          </mxGeometry>
        </mxCell>
        <mxCell id="eINXOdEoiIzQeCJLC4Ov-458" value="" style="endArrow=classic;html=1;rounded=0;exitX=0.5;exitY=1;exitDx=0;exitDy=0;entryX=0.5;entryY=0;entryDx=0;entryDy=0;" edge="1" parent="1" source="eINXOdEoiIzQeCJLC4Ov-457" target="eINXOdEoiIzQeCJLC4Ov-189">
          <mxGeometry width="50" height="50" relative="1" as="geometry">
            <mxPoint x="1730" y="5800" as="sourcePoint" />
            <mxPoint x="1780" y="5750" as="targetPoint" />
          </mxGeometry>
        </mxCell>
        <mxCell id="eINXOdEoiIzQeCJLC4Ov-462" value="" style="endArrow=classic;html=1;rounded=0;exitX=0.5;exitY=1;exitDx=0;exitDy=0;entryX=0.5;entryY=0;entryDx=0;entryDy=0;" edge="1" parent="1" source="eINXOdEoiIzQeCJLC4Ov-189" target="eINXOdEoiIzQeCJLC4Ov-191">
          <mxGeometry width="50" height="50" relative="1" as="geometry">
            <mxPoint x="1690" y="6060" as="sourcePoint" />
            <mxPoint x="1740" y="6010" as="targetPoint" />
          </mxGeometry>
        </mxCell>
        <mxCell id="eINXOdEoiIzQeCJLC4Ov-463" value="" style="endArrow=classic;html=1;rounded=0;exitX=0.5;exitY=1;exitDx=0;exitDy=0;entryX=0.5;entryY=0;entryDx=0;entryDy=0;" edge="1" parent="1" source="eINXOdEoiIzQeCJLC4Ov-191" target="eINXOdEoiIzQeCJLC4Ov-193">
          <mxGeometry width="50" height="50" relative="1" as="geometry">
            <mxPoint x="1690" y="6390" as="sourcePoint" />
            <mxPoint x="1740" y="6340" as="targetPoint" />
          </mxGeometry>
        </mxCell>
        <mxCell id="eINXOdEoiIzQeCJLC4Ov-465" value="" style="endArrow=classic;html=1;rounded=0;exitX=0.5;exitY=1;exitDx=0;exitDy=0;entryX=0.5;entryY=0;entryDx=0;entryDy=0;" edge="1" parent="1" source="eINXOdEoiIzQeCJLC4Ov-464" target="eINXOdEoiIzQeCJLC4Ov-210">
          <mxGeometry width="50" height="50" relative="1" as="geometry">
            <mxPoint x="1880" y="6630" as="sourcePoint" />
            <mxPoint x="1930" y="6580" as="targetPoint" />
          </mxGeometry>
        </mxCell>
        <mxCell id="eINXOdEoiIzQeCJLC4Ov-466" value="" style="endArrow=classic;html=1;rounded=0;exitX=0.5;exitY=1;exitDx=0;exitDy=0;entryX=0.5;entryY=0;entryDx=0;entryDy=0;" edge="1" parent="1" source="eINXOdEoiIzQeCJLC4Ov-199" target="eINXOdEoiIzQeCJLC4Ov-207">
          <mxGeometry width="50" height="50" relative="1" as="geometry">
            <mxPoint x="2360" y="6730" as="sourcePoint" />
            <mxPoint x="2410" y="6680" as="targetPoint" />
          </mxGeometry>
        </mxCell>
        <mxCell id="eINXOdEoiIzQeCJLC4Ov-467" value="" style="endArrow=classic;html=1;rounded=0;exitX=0.5;exitY=1;exitDx=0;exitDy=0;entryX=0.5;entryY=0;entryDx=0;entryDy=0;" edge="1" parent="1" source="eINXOdEoiIzQeCJLC4Ov-210" target="eINXOdEoiIzQeCJLC4Ov-213">
          <mxGeometry width="50" height="50" relative="1" as="geometry">
            <mxPoint x="2360" y="6880" as="sourcePoint" />
            <mxPoint x="2410" y="6830" as="targetPoint" />
          </mxGeometry>
        </mxCell>
        <mxCell id="eINXOdEoiIzQeCJLC4Ov-468" value="" style="endArrow=classic;html=1;rounded=0;exitX=0.5;exitY=1;exitDx=0;exitDy=0;entryX=0.5;entryY=0;entryDx=0;entryDy=0;" edge="1" parent="1" source="eINXOdEoiIzQeCJLC4Ov-193" target="eINXOdEoiIzQeCJLC4Ov-195">
          <mxGeometry width="50" height="50" relative="1" as="geometry">
            <mxPoint x="2240" y="6700" as="sourcePoint" />
            <mxPoint x="2290" y="6650" as="targetPoint" />
          </mxGeometry>
        </mxCell>
        <mxCell id="eINXOdEoiIzQeCJLC4Ov-469" value="" style="endArrow=classic;html=1;rounded=0;exitX=0.5;exitY=1;exitDx=0;exitDy=0;entryX=0.5;entryY=0;entryDx=0;entryDy=0;" edge="1" parent="1" source="eINXOdEoiIzQeCJLC4Ov-195">
          <mxGeometry width="50" height="50" relative="1" as="geometry">
            <mxPoint x="2240" y="6700" as="sourcePoint" />
            <mxPoint x="1730" y="6990" as="targetPoint" />
          </mxGeometry>
        </mxCell>
        <mxCell id="eINXOdEoiIzQeCJLC4Ov-471" value="按照距离对ped_pairs每个目标进行权重计算，并将min_size个目标中满粗has_2pe_res_和_use_2pe_detection_属性的cyclist目标分别存入forward_ped_prfortask_list和forward5_ped_prfortask_2pe_det中" style="rounded=0;whiteSpace=wrap;html=1;" vertex="1" parent="1">
          <mxGeometry x="-370" y="910" width="450" height="60" as="geometry" />
        </mxCell>
        <mxCell id="eINXOdEoiIzQeCJLC4Ov-472" value="CalAndCheckOverLabPairPre" style="swimlane;whiteSpace=wrap;html=1;strokeColor=#99FF99;" vertex="1" parent="1">
          <mxGeometry x="2150" y="6990" width="200" height="90" as="geometry" />
        </mxCell>
        <mxCell id="eINXOdEoiIzQeCJLC4Ov-473" value="计算IOU，并使用匈牙利算法获取最优解" style="text;html=1;strokeColor=none;fillColor=none;align=left;verticalAlign=middle;whiteSpace=wrap;rounded=0;" vertex="1" parent="eINXOdEoiIzQeCJLC4Ov-472">
          <mxGeometry x="5" y="30" width="190" height="50" as="geometry" />
        </mxCell>
        <mxCell id="eINXOdEoiIzQeCJLC4Ov-474" value="call" style="endArrow=open;endSize=12;dashed=1;html=1;rounded=0;" edge="1" parent="1">
          <mxGeometry width="160" relative="1" as="geometry">
            <mxPoint x="2080" y="7020" as="sourcePoint" />
            <mxPoint x="2126" y="7020.42" as="targetPoint" />
          </mxGeometry>
        </mxCell>
        <mxCell id="eINXOdEoiIzQeCJLC4Ov-475" value="" style="endArrow=classic;html=1;rounded=0;exitX=0.5;exitY=1;exitDx=0;exitDy=0;entryX=0.5;entryY=0;entryDx=0;entryDy=0;" edge="1" parent="1" source="eINXOdEoiIzQeCJLC4Ov-166" target="eINXOdEoiIzQeCJLC4Ov-170">
          <mxGeometry width="50" height="50" relative="1" as="geometry">
            <mxPoint x="1950" y="7250" as="sourcePoint" />
            <mxPoint x="2000" y="7200" as="targetPoint" />
          </mxGeometry>
        </mxCell>
        <mxCell id="eINXOdEoiIzQeCJLC4Ov-476" value="" style="endArrow=classic;html=1;rounded=0;exitX=0.5;exitY=1;exitDx=0;exitDy=0;entryX=0.5;entryY=0;entryDx=0;entryDy=0;" edge="1" parent="1" source="eINXOdEoiIzQeCJLC4Ov-170" target="eINXOdEoiIzQeCJLC4Ov-174">
          <mxGeometry width="50" height="50" relative="1" as="geometry">
            <mxPoint x="1890" y="7130" as="sourcePoint" />
            <mxPoint x="1940" y="7080" as="targetPoint" />
          </mxGeometry>
        </mxCell>
        <mxCell id="eINXOdEoiIzQeCJLC4Ov-479" value="" style="endArrow=classic;html=1;rounded=0;exitX=0.5;exitY=1;exitDx=0;exitDy=0;" edge="1" parent="1" source="eINXOdEoiIzQeCJLC4Ov-174" target="eINXOdEoiIzQeCJLC4Ov-178">
          <mxGeometry width="50" height="50" relative="1" as="geometry">
            <mxPoint x="1890" y="8060" as="sourcePoint" />
            <mxPoint x="1940" y="8010" as="targetPoint" />
          </mxGeometry>
        </mxCell>
        <mxCell id="eINXOdEoiIzQeCJLC4Ov-480" value="" style="endArrow=classic;html=1;rounded=0;exitX=0.5;exitY=1;exitDx=0;exitDy=0;" edge="1" parent="1" source="eINXOdEoiIzQeCJLC4Ov-178" target="eINXOdEoiIzQeCJLC4Ov-182">
          <mxGeometry width="50" height="50" relative="1" as="geometry">
            <mxPoint x="1890" y="8060" as="sourcePoint" />
            <mxPoint x="1940" y="8010" as="targetPoint" />
          </mxGeometry>
        </mxCell>
        <mxCell id="eINXOdEoiIzQeCJLC4Ov-481" value="" style="endArrow=classic;html=1;rounded=0;exitX=0.5;exitY=1;exitDx=0;exitDy=0;entryX=0.5;entryY=0;entryDx=0;entryDy=0;" edge="1" parent="1" source="eINXOdEoiIzQeCJLC4Ov-182" target="eINXOdEoiIzQeCJLC4Ov-186">
          <mxGeometry width="50" height="50" relative="1" as="geometry">
            <mxPoint x="1890" y="8060" as="sourcePoint" />
            <mxPoint x="1940" y="8010" as="targetPoint" />
          </mxGeometry>
        </mxCell>
      </root>
    </mxGraphModel>
  </diagram>
</mxfile>
